<svg xmlns="http://www.w3.org/2000/svg" xmlns:xlink="http://www.w3.org/1999/xlink" xmlns:lucid="lucid" width="2398.51" height="576.31"><g transform="translate(1152.9296071158917 -304.2898069757267)" lucid:page-tab-id="MOJdpcnVAiXQ"><path d="M-1132.93 425.02a6 6 0 0 1 6-6h1416.5a6 6 0 0 1 6 6v349.06a6 6 0 0 1-6 6h-1416.5a6 6 0 0 1-6-6z" stroke="#000" stroke-opacity="0" fill="#9ecae1"/><path d="M-1122.26 616.67h10.1m10.1 0h20.17m10.1 0h20.2m10.08 0h20.18m10.1 0h20.18m10.1 0h20.17m10.1 0h20.2m10.08 0h20.2m10.08 0h20.18m10.1 0h20.18m10.1 0h20.17m10.1 0h20.17m10.1 0h20.18m10.1 0h20.17m10.1 0h20.18m10.1 0h20.17m10.1 0h10.1M-1122.23 616.67h-1.03" stroke="#000" stroke-width="2" fill="none"/><path d="M-622.58 616.68l-14.26 4.63v-9.26z" stroke="#000" stroke-width="2"/><path d="M-1112.23 509.2a6 6 0 0 1 6-6h438.05a6 6 0 0 1 6 6V717.2a6 6 0 0 1-6 6h-438.05a6 6 0 0 1-6-6z" fill="#9ecae1"/><path d="M-1096.15 503.2h10.07m5.03 0h10.07m5.04 0h10.07m5.03 0h10.07m5.04 0h10.07m5.03 0h10.07m5.03 0h10.07m5.04 0h10.07m5.04 0h10.06m5.03 0h10.06m5.04 0h10.07m5.03 0h10.07m5.04 0h10.08m5.03 0h10.08m5.04 0h10.07m5.02 0h10.07m5.03 0h10.07m5.03 0h10.07m5.04 0h10.07m5.04 0h10.07m5.05 0h10.07m5.03 0h10.07m5.04 0h10.07m5.03 0h10.07m5.04 0h10.07m5.03 0h10.07m5.04 0h10.07m5.03 0h10.07m5.04 0h5.02l.94.07.92.22.87.35.8.5.72.6.6.72.5.8.36.87.22.92.07.93v4.95m0 4.95v9.9m0 4.96v9.9m0 4.96v9.9m0 4.96v9.9m0 4.96v9.9m0 4.95v9.9m0 4.95v9.9m0 4.96v9.92m0 4.95v9.9m0 4.96v9.9m0 4.96v9.9m0 4.95v9.9m0 4.96v9.9m0 4.97v4.95l-.07.94-.22.9-.36.88-.5.8-.6.72-.72.6-.8.5-.87.37-.92.22-.94.07h-5.03m-5.05 0h-10.07m-5.03 0h-10.07m-5.04 0h-10.07m-5.03 0h-10.07m-5.04 0h-10.07m-5.03 0h-10.07m-5.04 0h-10.07m-5.03 0h-10.07m-5.04 0h-10.06m-5.03 0h-10.06m-5.04 0h-10.07m-5.03 0h-10.07m-5.04 0h-10.08m-5.03 0h-10.08m-5.04 0h-10.07m-5.02 0h-10.07m-5.03 0H-930m-5.03 0h-10.07m-5.04 0h-10.07m-5.04 0h-10.07m-5.05 0h-10.07m-5.04 0h-10.06m-5.04 0h-10.07m-5.03 0h-10.07m-5.04 0h-10.07m-5.04 0h-10.06m-5.04 0h-10.07m-5.04 0h-10.06m-5.03 0h-5.03l-.93-.08-.92-.22-.87-.35-.8-.5-.72-.6-.6-.72-.5-.8-.36-.88-.22-.9-.07-.95v-4.95m0-4.96v-9.9m0-4.95v-9.9m0-4.95v-9.9m0-4.96v-9.9m0-4.96v-9.9m0-4.96v-9.9m0-4.96v-9.9m0-4.96v-9.9m0-4.96v-9.9m0-4.96v-9.9m0-4.96v-9.9m0-4.96v-9.9m0-4.95v-9.9m0-4.95v-4.96l.07-.94.22-.92.36-.87.5-.8.6-.72.72-.6.8-.5.87-.36.92-.23.93-.08h5.04" stroke="#000" fill="none"/><path d="M-618.84 519.4a6 6 0 0 1 6-6h342.35a6 6 0 0 1 6 6v200.76a6 6 0 0 1-6 6h-342.34a6 6 0 0 1-6-6z" fill="#9ecae1"/><path d="M-602.92 513.4h9.93m4.97 0h9.92m4.95 0h9.93m4.96 0h9.92m4.96 0h9.92m4.97 0h9.93m4.96 0h9.92m4.96 0h9.92m4.96 0h9.92m4.97 0h9.92m4.96 0h9.92m4.97 0h9.92m4.96 0h9.92m4.96 0h9.93m4.97 0h9.92m4.96 0h9.92m4.96 0h9.92m4.96 0h9.93m4.96 0h9.93m4.96 0h9.92m4.96 0h9.92m4.96 0h9.93m4.95 0h4.96l.95.06.9.22.88.36.8.5.72.6.6.72.5.8.37.87.22.92.07.94v5.13m0 5.15v10.3m0 5.15v10.3m0 5.14v10.3m0 5.14v10.3m0 5.16v10.3m0 5.14v10.3m0 5.15v10.3m0 5.14v10.3m0 5.13v10.3m0 5.15v10.3m0 5.14v10.3m0 5.15v10.3m0 5.14v5.16l-.06.94-.22.9-.36.88-.5.8-.6.72-.72.6-.8.5-.88.37-.9.22-.95.06h-4.95m-4.96 0h-9.94m-4.96 0h-9.92m-4.96 0h-9.93m-4.97 0H-335m-4.95 0h-9.93m-4.96 0h-9.92m-4.96 0h-9.92m-4.97 0h-9.93m-4.96 0h-9.92m-4.96 0h-9.92m-4.96 0h-9.92m-4.97 0h-9.92m-4.96 0h-9.92m-4.97 0h-9.92m-4.96 0h-9.92m-4.96 0h-9.93m-4.97 0h-9.92m-4.96 0h-9.92m-4.96 0h-9.92m-4.96 0h-9.93m-4.96 0h-9.93m-4.96 0h-9.92m-4.96 0h-4.96l-.94-.07-.9-.23-.88-.36-.8-.5-.72-.6-.6-.7-.5-.82-.37-.87-.22-.9-.07-.94V715m0-5.14v-10.3m0-5.14v-10.3m0-5.14v-10.3m0-5.15v-10.3m0-5.14v-10.3m0-5.16v-10.3m0-5.14v-10.3m0-5.14v-10.3m0-5.15v-10.28m0-5.15v-10.3m0-5.15v-10.3m0-5.14v-10.3m0-5.15v-5.14l.07-.95.22-.92.36-.87.5-.8.62-.72.7-.6.82-.5.87-.36.92-.22.94-.07h4.96" stroke="#000" fill="none"/><path d="M-618.84 674.08h166.92v45.5h-166.92z" fill="#9ecae1"/><use xlink:href="#a" transform="matrix(1,0,0,1,-613.840156723375,679.0841034371298) translate(7.025390625000071 21.45507812499998)"/><use xlink:href="#b" transform="matrix(1,0,0,1,-613.840156723375,679.0841034371298) translate(86.44162326388889 21.45507812499998)"/><path d="M-519.78 587.5v51.4h-37.24v-51.4h37.24m2.68-2.74h-42.6v56.88h42.6v-56.88z" stroke="#fff" stroke-opacity="0" stroke-width="3"/><path d="M-526.73 593.9h3.4v2.7h-3.4v-2.7zM-553.48 593.9h24.34v2.7h-24.34v-2.7zM-539.92 602.88h16.6v2.7h-16.6v-2.7zM-547.62 602.88h5.63v2.7h-5.62v-2.7zM-553.48 602.88h3.05v2.7h-3.05v-2.7zM-541.3 611.85h17.97v2.7h-17.97v-2.7zM-553.48 611.85h9.78v2.7h-9.77v-2.7zM-553.48 620.8h30.14v2.72h-30.13v-2.7zM-528.63 629.8h5.3v2.7h-5.3v-2.7zM-553.48 629.8h21.85v2.7h-21.85v-2.7z" stroke="#fff" stroke-opacity="0" stroke-width="3"/><path d="M-507.66 649.82h-45.3v-5.43h2.73v2.73h39.85V592.8h-4.03v-2.67h6.74v59.7z" stroke="#fff" stroke-opacity="0" stroke-width="3"/><path d="M-1056.1 590.13v11.7l-12.45-7.17v-27.74h-29.13v40.13h14.43l1.55 18.1h-10.96v40.13h29.13v-27.94l7.43-7.18v.1h29.13v-40.13zm18.24 24.3c-.57 3.54-2.62 5.6-4.6 4.62-.7-.4-1.27-1.08-1.76-2.17l-9.9 9.54-1.98 1.87-7.43 7.17-1.98 1.87-9.06 8.76c.57 3.54-.56 7.18-2.54 8.26-1.9.98-3.96-1-4.53-4.53-.56-3.44.43-6.98 2.27-8.16l-.64-7.77-.78-8.75-1.55-18.1-.3-3.44-.62-7.47c-2.05-.1-3.68-3.25-3.54-6.88.08-3.64 1.78-6.5 3.83-6.4 2.05.2 3.6 3.25 3.54 7v.38l8.9 5.1 1.98 1.1 12.45 7.18 1.98 1.2 9.26 5.3c.78-3.45 2.97-5.02 4.88-3.64 1.7 1.28 2.6 4.72 2.12 7.96z" stroke="#000" stroke-opacity="0" stroke-width=".15"/><path d="M-1045.12 612.8l-9-5.13-1.96-1.12-12.5-7.22-1.92-1.12-9.42-5.37c-.37 1.17-.8 1.98-1.47 2.6-.1.1-.2.2-.36.3l.66 7.82.33 3.5 1.55 18.1.73 8.7.68 7.47c.25.05.47.1.73.25.75.36 1.34 1.02 1.8 2.1l9.8-9.42 1.95-1.88 7.47-7.22 1.95-1.88 9.16-8.8c-.08-.55-.15-1.06-.15-1.67zm-10.96 10.48l-7.47 7.2v-5.33h-14.75l-1.55-18.1h11.26v-6l12.52 7.23z" stroke="#000" stroke-opacity="0" stroke-width=".15"/><path d="M-599.9 466.03a6 6 0 0 1 6-6h304.48a6 6 0 0 1 6 6v85.8a6 6 0 0 1-6 6h-304.5a6 6 0 0 1-6-6z" stroke="#000" fill="#9ecae1"/><use xlink:href="#c" transform="matrix(1,0,0,1,-594.9069943536927,465.0329286136831) translate(16.659722222222342 50.605468749999986)"/><use xlink:href="#d" transform="matrix(1,0,0,1,-594.9069943536927,465.0329286136831) translate(204.81510416666663 50.605468749999986)"/><path d="M-1089.87 462.47a6 6 0 0 1 6-6h386.4a6 6 0 0 1 6 6v85.8a6 6 0 0 1-6 6h-386.4a6 6 0 0 1-6-6z" stroke="#000" fill="#9ecae1"/><use xlink:href="#e" transform="matrix(1,0,0,1,-1084.8695118862786,461.47211652525505) translate(32.002170138889056 50.60546874999997)"/><use xlink:href="#f" transform="matrix(1,0,0,1,-1084.8695118862786,461.47211652525505) translate(49.107204861111256 50.60546874999997)"/><use xlink:href="#g" transform="matrix(1,0,0,1,-1084.8695118862786,461.47211652525505) translate(203.0525173611111 50.60546874999997)"/><use xlink:href="#h" transform="matrix(1,0,0,1,-1084.8695118862786,461.47211652525505) translate(237.2625868055555 50.60546874999997)"/><use xlink:href="#i" transform="matrix(1,0,0,1,-1084.8695118862786,461.47211652525505) translate(305.68272569444434 50.60546874999997)"/><path d="M-237.2 572.92a6 6 0 0 1 6-6h136.4a6 6 0 0 1 6 6v94.63a6 6 0 0 1-6 6h-136.4a6 6 0 0 1-6-6z" fill="#9ecae1"/><path d="M-221.1 566.92h10.1m5.06 0h10.1m5.06 0h10.1m5.05 0h10.1m5.06 0h10.1m5.06 0h10.1m5.04 0h10.1m5.06 0h10.1m5.06 0h5.05l.95.07.9.2.88.37.8.5.72.6.6.72.5.8.36.87.23.9.08.95v5.26m0 5.25v10.52m0 5.25v10.52m0 5.26v10.5m0 5.27v10.5m0 5.27v10.5m0 5.27v5.25l-.07.94-.2.9-.38.87-.5.8-.6.72-.72.6-.8.5-.87.35-.9.22-.95.08h-5.04m-5.06 0H-115m-5.05 0h-10.1m-5.06 0h-10.1m-5.07 0h-10.1m-5.05 0h-10.1m-5.06 0h-10.1m-5.06 0h-10.1m-5.05 0h-10.1m-5.05 0h-5.05l-.94-.08-.92-.22-.86-.36-.8-.5-.72-.6-.62-.73-.5-.8-.35-.87-.23-.9-.07-.95v-5.26m0-5.27v-10.5m0-5.27v-10.5m0-5.27v-10.52m0-5.26v-10.5m0-5.27v-10.52m0-5.25v-5.26l.07-.94.22-.9.35-.88.5-.8.6-.72.72-.6.8-.5.88-.37.9-.2.95-.08h5.05" stroke="#000" fill="none"/><use xlink:href="#j" transform="matrix(1,0,0,1,-232.20056480542482,571.9194492533162) translate(15.741319444444478 60.55859374999998)"/><path d="M-944 590.13v11.7l-12.46-7.17v-27.74h-29.13v40.13h14.44l1.55 18.1h-10.97v40.13h29.13v-27.94l7.43-7.18v.1h29.12v-40.13zm18.23 24.3c-.57 3.54-2.62 5.6-4.6 4.62-.7-.4-1.27-1.08-1.77-2.17l-9.9 9.54-1.98 1.87-7.42 7.17-1.98 1.87-9.05 8.76c.57 3.54-.56 7.18-2.54 8.26-1.92.98-3.97-1-4.54-4.53-.56-3.44.43-6.98 2.26-8.16l-.63-7.77-.8-8.75-1.55-18.1-.28-3.44-.63-7.47c-2.06-.1-3.68-3.25-3.54-6.88.07-3.64 1.77-6.5 3.82-6.4 2.05.2 3.6 3.25 3.53 7v.38l8.9 5.1 2 1.1 12.44 7.18 1.97 1.2 9.26 5.3c.77-3.45 2.97-5.02 4.88-3.64 1.7 1.28 2.62 4.72 2.13 7.96z" stroke="#000" stroke-opacity="0" stroke-width=".15"/><path d="M-933.03 612.8l-9-5.13-1.97-1.12-12.5-7.22-1.92-1.12-9.4-5.37c-.38 1.17-.82 1.98-1.48 2.6-.12.1-.23.2-.37.3l.66 7.82.32 3.5 1.55 18.1.73 8.7.66 7.47c.26.05.48.1.74.25.74.36 1.32 1.02 1.8 2.1l9.8-9.42 1.94-1.88 7.47-7.22 1.96-1.88 9.15-8.8c-.06-.55-.13-1.06-.13-1.67zM-944 623.28l-7.46 7.2v-5.33h-14.75l-1.56-18.1h11.26v-6l12.5 7.23zM-710.66 590.26v11.7l-12.45-7.18v-27.73h-29.13v40.13h14.42l1.54 18.1h-10.96v40.12h29.13v-27.93l7.44-7.18v.1h29.13v-40.14zm18.24 24.3c-.57 3.54-2.62 5.6-4.6 4.62-.7-.4-1.27-1.08-1.76-2.17l-9.9 9.55-1.98 1.87-7.43 7.18-1.97 1.87-9.04 8.75c.55 3.55-.58 7.18-2.56 8.27-1.9.97-3.96-1-4.52-4.54-.57-3.44.42-6.98 2.26-8.16l-.64-7.77-.78-8.75-1.55-18.1-.27-3.44-.64-7.48c-2.06-.1-3.7-3.25-3.55-6.88.07-3.64 1.77-6.5 3.82-6.4 2.05.2 3.6 3.25 3.54 7v.38l8.9 5.1 2 1.1 12.44 7.18 1.98 1.17 9.26 5.33c.78-3.45 2.97-5.02 4.88-3.64 1.7 1.27 2.62 4.7 2.12 7.95z" stroke="#000" stroke-opacity="0" stroke-width=".15"/><path d="M-699.68 612.93l-9-5.13-1.96-1.12-12.5-7.22-1.92-1.12-9.42-5.38c-.37 1.16-.8 1.98-1.47 2.6-.1.1-.22.2-.37.3l.66 7.82.33 3.5 1.55 18.1.74 8.7.66 7.47c.25.05.48.1.73.25.74.36 1.33 1.02 1.8 2.1l9.8-9.42 1.94-1.88 7.46-7.22 1.95-1.88 9.17-8.8c-.08-.55-.15-1.06-.15-1.67zm-10.96 10.47l-7.47 7.22v-5.34h-14.76l-1.55-18.1h11.25v-6l12.5 7.23z" stroke="#000" stroke-opacity="0" stroke-width=".15"/><path d="M-803.27 599.04h48.93v53.2h-48.93z" fill="#9ecae1"/><use xlink:href="#k" transform="matrix(1,0,0,1,-798.2708749498513,604.0441096011319) translate(0 21.45507812499998)"/><path d="M-436.4 671.83h169V719h-169z" fill="#9ecae1"/><use xlink:href="#l" transform="matrix(1,0,0,1,-431.4000816303053,676.8296129139518) translate(8.025390625000071 21.45507812499998)"/><use xlink:href="#b" transform="matrix(1,0,0,1,-431.4000816303053,676.8296129139518) translate(87.44162326388889 21.45507812499998)"/><path d="M-329.98 587.5v51.4h-37.24v-51.4h37.24m2.68-2.74h-42.6v56.88h42.6v-56.88z" stroke="#fff" stroke-opacity="0" stroke-width="3"/><path d="M-336.92 593.9h3.38v2.7h-3.38v-2.7zM-363.67 593.9h24.33v2.7h-24.33v-2.7zM-350.12 602.88h16.6v2.7h-16.6v-2.7zM-357.82 602.88h5.63v2.7h-5.62v-2.7zM-363.67 602.88h3.05v2.7h-3.05v-2.7zM-351.5 611.85h17.98v2.7h-17.98v-2.7zM-363.67 611.85h9.77v2.7h-9.77v-2.7zM-363.67 620.8h30.13v2.72h-30.13v-2.7zM-338.82 629.8h5.3v2.7h-5.3v-2.7zM-363.67 629.8h21.84v2.7h-21.84v-2.7z" stroke="#fff" stroke-opacity="0" stroke-width="3"/><path d="M-317.86 649.82h-45.3v-5.43h2.73v2.73h39.85V592.8h-4.03v-2.67h6.74v59.7z" stroke="#fff" stroke-opacity="0" stroke-width="3"/><path d="M-25.68 505.84a6 6 0 0 1 6-6h290.9a6 6 0 0 1 6 6V740.4a6 6 0 0 1-6 6h-290.9a6 6 0 0 1-6-6z" fill="#9ecae1"/><path d="M-9.47 499.84H.73m5.1 0h10.22m5.1 0h10.2m5.1 0h10.22m5.1 0h10.2m5.1 0H77.3m5.1 0h10.2m5.1 0h10.2m5.1 0h10.22m5.1 0h10.2m5.1 0h10.22m5.1 0h10.2m5.1 0h10.22m5.1 0h10.2m5.1 0h10.22m5.1 0h10.2m5.1 0h10.22m5.1 0H261m5.12 0h5.1l.94.08.9.2.88.38.8.5.72.6.6.7.5.82.37.87.2.9.1.94v4.9m0 4.87v9.8m0 4.87v9.77m0 4.9v9.76m0 4.9v9.76m0 4.9V584m0 4.9v9.76m0 4.9v9.76m0 4.9V628m0 4.9v9.76m0 4.88v9.78m0 4.88v9.78m0 4.88v9.77m0 4.9v9.76m0 4.88v9.77m0 4.9v9.76m0 4.9v4.88l-.1.94-.2.92-.37.87-.5.8-.6.73-.7.6-.82.5-.87.36-.9.2-.95.1h-5.1m-5.1 0h-10.2m-5.12 0h-10.2m-5.1 0h-10.22m-5.1 0h-10.2m-5.1 0h-10.22m-5.1 0h-10.2m-5.1 0h-10.22m-5.1 0h-10.2m-5.1 0H128.3m-5.1 0h-10.2m-5.1 0H97.7m-5.1 0H82.4m-5.1 0H67.07m-5.1 0h-10.2m-5.1 0H36.45m-5.1 0h-10.2m-5.1 0H5.83m-5.1 0h-10.2m-5.1 0h-5.12l-.93-.1-.93-.2-.87-.37-.8-.5-.72-.6-.6-.72-.5-.8-.36-.86-.22-.92-.08-.94v-4.88m0-4.9v-9.76m0-4.9v-9.76m0-4.9v-9.76m0-4.88v-9.78m0-4.88v-9.78m0-4.88v-9.78m0-4.88v-9.77m0-4.9v-9.77m0-4.9v-9.76m0-4.9v-9.76m0-4.88v-9.77m0-4.9v-9.76m0-4.9v-9.77m0-4.88v-9.78m0-4.88v-9.8m0-4.87v-4.9l.08-.93.22-.9.36-.88.5-.8.6-.72.72-.6.8-.5.87-.37.92-.2.92-.1h5.1" stroke="#000" fill="none"/><path d="M52.8 595.2v51.42H15.57V595.2H52.8m2.7-2.73H12.87v56.88h42.6v-56.88z" stroke="#fff" stroke-opacity="0" stroke-width="3"/><path d="M45.86 601.6h3.4v2.72h-3.4v-2.7zM19.1 601.6h24.35v2.72H19.1v-2.7zM32.66 610.6h16.6v2.7h-16.6v-2.7zM24.96 610.6h5.64v2.7h-5.64v-2.7zM19.1 610.6h3.06v2.7H19.1v-2.7zM31.3 619.56h17.96v2.7H31.3v-2.7zM19.1 619.56h9.8v2.7h-9.8v-2.7zM19.1 628.52h30.15v2.7H19.1v-2.7zM43.96 637.5h5.3v2.7h-5.3v-2.7zM19.1 637.5h21.85v2.7H19.1v-2.7z" stroke="#fff" stroke-opacity="0" stroke-width="3"/><path d="M64.93 657.53h-45.3v-5.44h2.73v2.74H62.2v-54.32H58.2v-2.68h6.75v59.7z" stroke="#fff" stroke-opacity="0" stroke-width="3"/><path d="M5.64 669.54h69.12v63H5.64z" fill="#9ecae1"/><use xlink:href="#m" transform="matrix(1,0,0,1,10.640733880088575,674.5400964344226) translate(22.66927083333334 19.804687499999982)"/><path d="M238.36 595.84v51.42h-37.24v-51.42h37.24m2.68-2.73h-42.6V650h42.6v-56.9z" stroke="#fff" stroke-opacity="0" stroke-width="3"/><path d="M231.4 602.25h3.4v2.7h-3.4v-2.7zM204.67 602.25H229v2.7h-24.33v-2.7zM218.22 611.23h16.6v2.7h-16.6v-2.7zM210.52 611.23h5.63v2.7h-5.63v-2.7zM204.67 611.23h3.04v2.7h-3.03v-2.7zM216.84 620.2h17.97v2.7h-17.96v-2.7zM204.67 620.2h9.77v2.7h-9.77v-2.7zM204.67 629.16h30.13v2.7h-30.13v-2.7zM229.5 638.14h5.3v2.7h-5.3v-2.7zM204.67 638.14h21.84v2.7h-21.83v-2.7z" stroke="#fff" stroke-opacity="0" stroke-width="3"/><path d="M250.48 658.16h-45.3v-5.43h2.73v2.75h39.86v-54.32h-4.03v-2.7h6.75v59.7z" stroke="#fff" stroke-opacity="0" stroke-width="3"/><path d="M-9.9 464.32a6 6 0 0 1 6-6h265.3a6 6 0 0 1 6 6v89.22a6 6 0 0 1-6 6H-3.9a6 6 0 0 1-6-6z" stroke="#000" fill="#9ecae1"/><use xlink:href="#n" transform="matrix(1,0,0,1,-4.908002645135156,463.32295578243077) translate(5.7122395833334565 54.730468749999986)"/><path d="M-987.25 334.77a6 6 0 0 1 6-6h1127.1a6 6 0 0 1 6 6v79.36a6 6 0 0 1-6 6h-1127.1a6 6 0 0 1-6-6z" stroke="#000" stroke-opacity="0" fill="#9ecae1"/><use xlink:href="#o" transform="matrix(1,0,0,1,-982.2516232193104,333.7722920038706) translate(253.4440104166668 51.119140624999986)"/><use xlink:href="#p" transform="matrix(1,0,0,1,-982.2516232193104,333.7722920038706) translate(481.9184027777778 51.119140624999986)"/><use xlink:href="#q" transform="matrix(1,0,0,1,-982.2516232193104,333.7722920038706) translate(648.0815972222222 51.119140624999986)"/><path d="M371.6 405.2a6 6 0 0 1 6-6h841.98a6 6 0 0 1 6 6v368.88a6 6 0 0 1-6 6H377.6a6 6 0 0 1-6-6z" stroke="#000" stroke-opacity="0" fill="#9ecae1"/><path d="M927.76 510.18a6 6 0 0 1 6-6H1188a6 6 0 0 1 6 6V735.9a6 6 0 0 1-6 6H933.75a6 6 0 0 1-6-6z" fill="#9ecae1"/><path d="M943.73 504.18h9.97m5 0h9.96m4.98 0h9.97m5 0h9.96m5 0h9.96m4.98 0h9.97m5 0h9.96m4.98 0h9.98m5 0h9.96m4.98 0h9.97m4.98 0h9.96m5 0h9.96m4.98 0h9.97m5 0h9.96m5 0h9.96m5 0h9.96m4.98 0h5l.92.07.92.22.87.36.8.5.73.6.6.72.5.8.36.88.2.9.1.95v5.02m0 5v10.04m0 5.02v10.03m0 5v10.04m0 5.02v10.03m0 5v10.04m0 5v10.04m0 5.02v10.03m0 5.02v10.03m0 5.02v10.03m0 5.02v10.03m0 5v10.05m0 5v10.04m0 5.02v10.02m0 5.02v10.03m0 5.02v5l-.1.94-.2.92-.37.87-.5.8-.6.72-.72.6-.8.5-.86.36-.92.23-.93.07h-5m-4.98 0h-9.97m-5 0h-9.96m-5 0h-9.96m-5 0h-9.96m-4.98 0h-9.97m-5 0h-9.95m-5 0h-9.96m-4.98 0h-9.97m-5 0h-9.96m-4.97 0h-9.97m-5 0h-9.96m-4.98 0h-9.97m-5 0h-9.95m-5 0h-9.96m-4.98 0h-9.97m-5 0h-9.97m-4.98 0h-5l-.93-.07-.9-.22-.88-.35-.8-.5-.72-.6-.6-.72-.5-.8-.36-.87-.22-.92-.08-.94v-5m0-5.03v-10.03m0-5.02V700.8m0-5.02v-10.04m0-5v-10.05m0-5.02v-10.03m0-5.02V640.6m0-5.02v-10.03m0-5.02V610.5m0-5v-10.05m0-5V580.4m0-5v-10.04m0-5.02V550.3m0-5v-10.04m0-5.02V520.2m0-5v-5.02l.08-.94.22-.9.36-.88.5-.8.6-.72.72-.6.8-.5.87-.37.92-.22.94-.07h5" stroke="#000" fill="none"/><use xlink:href="#r" transform="matrix(1,0,0,1,932.7623576790469,509.1799595065869) translate(102.84244791666669 122.85546874999997)"/><path d="M546.48 330.3a6 6 0 0 1 6-6h485.87a6 6 0 0 1 6 6v79.35a6 6 0 0 1-6 6H552.48a6 6 0 0 1-6-6z" stroke="#000" stroke-opacity="0" fill="#9ecae1"/><use xlink:href="#s" transform="matrix(1,0,0,1,551.4828774941848,329.2898069757267) translate(129.7628038194445 51.119140624999986)"/><path d="M948.44 474.58a6 6 0 0 1 6-6h212.87a6 6 0 0 1 6 6v49.1a6 6 0 0 1-6 6H954.45a6 6 0 0 1-6-6z" stroke="#000" fill="#9ecae1"/><use xlink:href="#t" transform="matrix(1,0,0,1,953.4373321434977,473.57765506982025) translate(13.4223090277778 32.855468749999986)"/><path d="M953.7 549.6a6 6 0 0 1 6-6h198.9a6 6 0 0 1 6 6v34.33a6 6 0 0 1-6 6H959.7a6 6 0 0 1-6-6z" stroke="#000" fill="#9ecae1"/><use xlink:href="#m" transform="matrix(1,0,0,1,958.6869024683648,548.597609778477) translate(93.16927083333334 24.429687499999982)"/><path d="M879.64 605.12h4.27m4.27 0h8.54m4.27 0h4.27M879.65 605.12h-.5" stroke="#000" fill="none"/><path d="M920 605.12l-14.26 4.63v-9.27z" stroke="#000"/><path d="M397.93 510.18a6 6 0 0 1 6-6h462.43a6 6 0 0 1 6 6V735.9a6 6 0 0 1-6 6H403.93a6 6 0 0 1-6-6z" fill="#9ecae1"/><path d="M413.88 504.18h9.94m4.97 0h9.94m4.97 0h9.95m4.98 0h9.94m4.97 0h9.95m4.96 0h9.95m4.98 0h9.94m4.97 0h9.94m4.97 0h9.96m4.97 0h9.94m4.98 0H573m4.96 0h9.95m4.98 0h9.95m4.97 0h9.94m4.97 0h9.96m4.97 0h9.95m4.97 0h9.94m4.97 0h9.94m4.98 0h9.95m4.97 0h9.94m4.98 0h9.94m4.97 0h9.95m4.97 0H752m4.97 0h9.94m4.98 0h9.95m4.97 0h9.95m4.97 0h9.94m4.98 0h9.94m4.97 0h9.95m4.97 0h9.94m5 0h4.96l.94.07.9.22.88.36.8.5.72.6.6.72.5.8.37.88.2.9.1.95v5.02m0 5v10.04m0 5.02v10.03m0 5v10.04m0 5.02v10.03m0 5v10.04m0 5v10.04m0 5.02v10.03m0 5.02v10.03m0 5.02v10.03m0 5.02v10.03m0 5v10.05m0 5v10.04m0 5.02v10.02m0 5.02v10.03m0 5.02v5l-.1.94-.2.92-.37.87-.5.8-.6.72-.72.6-.8.5-.87.36-.9.23-.94.07h-4.97m-5 0h-9.93m-4.97 0h-9.95m-4.97 0h-9.95m-4.97 0h-9.94m-4.97 0h-9.95m-4.97 0h-9.95m-4.97 0h-9.93m-4.98 0h-9.95m-4.97 0h-9.95m-4.97 0h-9.94m-4.98 0h-9.94m-4.97 0h-9.95m-4.97 0h-9.93m-4.98 0h-9.95m-4.97 0h-9.95m-4.97 0h-9.95m-4.96 0h-9.94m-4.97 0h-9.95m-4.97 0h-9.94m-4.97 0h-9.95m-4.98 0h-9.94m-4.97 0h-9.95m-4.96 0h-9.95m-4.98 0h-9.94m-4.97 0h-9.94m-4.97 0h-9.96m-4.97 0h-9.94m-4.98 0h-9.94m-4.96 0h-9.95m-4.98 0h-9.94m-4.98 0h-4.97l-.94-.07-.92-.22-.87-.35-.8-.5-.7-.6-.62-.72-.5-.8-.35-.87-.23-.92-.07-.94v-5m0-5.03v-10.03m0-5.02V700.8m0-5.02v-10.04m0-5v-10.05m0-5.02v-10.03m0-5.02V640.6m0-5.02v-10.03m0-5.02V610.5m0-5v-10.05m0-5V580.4m0-5v-10.04m0-5.02V550.3m0-5v-10.04m0-5.02V520.2m0-5v-5.02l.07-.94.23-.9.35-.88.5-.8.6-.72.72-.6.8-.5.88-.37.9-.22.95-.07h4.97" stroke="#000" fill="none"/><path d="M449.6 643.3l-4.44-3.87h-.25l-4.84 4c-.6.46-1.25.46-1.92 0l-10.37-8.7c-.58-.47-.92-1.4-.92-2.35v-7.87l-4.76-3.4c-.6-.46-1-1.4-1-2.46v-13.5c0-1.06.4-1.88 1-2.35l4.75-3.53v-7.64c0-.94.34-1.76.92-2.23l10.53-8.57c.67-.47 1.43-.47 2 .12l4.27 3.87 4.93-4c.6-.46 1.34-.46 1.93 0l10.53 8.58c.58.47.92 1.3.92 2.23v7.64l4.76 3.52c.6.46 1 1.28 1 2.34v13.5c0 1.06-.4 2-1.08 2.47l-4.68 3.4v7.88c0 .94-.34 1.88-.92 2.35l-10.45 8.7c-.24.23-.57.35-.9.35-.34 0-.68-.12-1-.48zm37.1-30.65c0 5.05-2.5 9.28-5.85 10.34-2.84 20.2-14.2 36.28-28.67 40.5-.84 4.47-3.76 7.87-7.27 7.87-3.5 0-6.43-3.4-7.26-7.87-4.18-1.17-8.2-3.28-11.8-6.45l1.93-4.58c3.1 2.58 6.36 4.46 9.78 5.5.92-4.57 3.85-7.97 7.36-7.97 3.52 0 6.44 3.4 7.36 8 12.3-4 22.07-17.87 24.74-35.13-3.17-1.3-5.5-5.4-5.5-10.22 0-4.8 2.33-8.8 5.42-10.2-1.25-7.3-3.68-14.1-7.27-19.86l.08 5.98-3.76.12-.17-13.16c0-.7.17-1.4.5-1.88.42-.58.84-.82 1.34-.82l9.53-.23.08 5.4-5.35.13c4.43 6.8 7.53 15.03 8.86 24.07 3.43 1.18 5.94 5.4 5.94 10.45zm-66.53 30.77l.08-6.8 3.76.1-.16 13.4c0 .7-.16 1.3-.58 1.88-.33.47-.84.7-1.25.7h-.08l-9.36-.23.08-5.3 4.85.13c-4.36-6.93-7.36-15.4-8.62-24.3-3.34-1.2-5.76-5.4-5.76-10.35 0-5.05 2.5-9.27 5.85-10.33 3-19.85 14.3-35.82 28.5-39.93.75-4.82 3.76-8.47 7.44-8.47 3.7 0 6.78 3.65 7.45 8.58 4 1.18 7.85 3.18 11.45 6.23l-2 4.58c-3.02-2.57-6.28-4.33-9.7-5.5-1 4.34-3.85 7.5-7.2 7.5-3.42 0-6.26-3.16-7.18-7.5-12.3 3.87-22.07 17.5-24.9 34.64 3.17 1.3 5.5 5.4 5.5 10.2 0 4.95-2.42 9.06-5.6 10.23 1.18 7.63 3.77 14.68 7.45 20.55zm18.97-5.4l3.5-2.93v-25.15h-5.34v5.4h-3.76v-7.98c0-1.53.84-2.7 1.84-2.7h7.27V589.4l-3.43-3.05-8.6 6.8v.83h8.6v5.3h-8.6v1.5c0 1.07-.42 1.9-1 2.36l-4.7 3.52v10.46l4.7 3.4c0 .12.07.12.07.12h7.6c1.1 0 1.92 1.17 1.92 2.7v8h-3.84v-5.3h-4.77v4.82zm11.28-51.8l-3.93 3.18v7.28h6v-2.7h3.77v5.3c0 1.5-.83 2.7-1.83 2.7h-7.94v32.4l2.17 1.88v-7.63c0-1.4.92-2.6 1.92-2.6h3.83v5.3h-1.92v5.05l6.62-5.52V623c0-1.07.4-2 1-2.48l4.68-3.4v-4.47h-6.6v5.3c0 1.52-.84 2.7-1.93 2.7h-7.6v-5.3h5.76v-5.4c0-1.4.84-2.58 1.84-2.58h8.53v-.7l-4.68-3.53c-.6-.47-1-1.3-1-2.35v-7.64zm28.67 31.72c2.08 0 3.84-2.35 3.84-5.3 0-2.92-1.76-5.27-3.85-5.27-2.1 0-3.77 2.35-3.77 5.28 0 2.94 1.67 5.3 3.76 5.3zm-34.2 48.15c2.1 0 3.77-2.48 3.77-5.4 0-2.95-1.67-5.3-3.76-5.3-2.08 0-3.75 2.35-3.75 5.3 0 2.92 1.67 5.4 3.76 5.4zm-38.02-53.45c0 2.94 1.75 5.3 3.84 5.3 2.1 0 3.76-2.36 3.76-5.3 0-2.93-1.67-5.28-3.76-5.28-2.1 0-3.84 2.35-3.84 5.28zm38.03-53.43c-2.08 0-3.75 2.47-3.75 5.4 0 2.94 1.67 5.3 3.76 5.3 2.1 0 3.77-2.36 3.77-5.3 0-2.93-1.67-5.4-3.76-5.4z" stroke="#000" stroke-opacity="0"/><path d="M463.75 568.76l3.97 4.1 9.95 21.4 2.63 11.37 4.3 5.57-2.55 8.42-3.74 5.13-2.7 11.72-10.5 16.84-12.5 8.1-7.87 7.95-7.16-7.28-11.7-5-3.98-4.45-7.4-11.72-5.02-18.77-4.46-7.3.56-7.38 4.14-5.24 4.85-16.83 6.76-10.36 11.94-10 5.9-2.5 3-6.83 5.9-.1 4.54 7.72z" stroke="#000" stroke-opacity="0" fill-opacity="0"/><use xlink:href="#u" transform="matrix(1,0,0,1,373.1155084622074,680.3730338187386) translate(54.77278645833334 23.270507812499993)"/><path d="M729.7 639.86l-4.42-3.88h-.25l-4.84 4c-.6.46-1.27.46-1.94 0l-10.36-8.7c-.6-.47-.92-1.4-.92-2.35v-7.86l-4.76-3.4c-.6-.48-1-1.42-1-2.47v-13.5c0-1.07.4-1.9 1-2.36l4.76-3.52v-7.64c0-.93.33-1.76.92-2.23l10.53-8.57c.67-.47 1.42-.47 2 .12l4.27 3.87 4.93-4c.6-.46 1.34-.46 1.92 0l10.54 8.58c.57.47.9 1.3.9 2.23v7.64l4.77 3.52c.58.47 1 1.3 1 2.35v13.5c0 1.05-.42 2-1.1 2.46l-4.67 3.4v7.88c0 .93-.33 1.87-.9 2.34l-10.46 8.7c-.25.23-.6.35-.92.35-.34 0-.67-.12-1-.47zm37.13-30.65c0 5.06-2.5 9.28-5.86 10.34-2.84 20.2-14.2 36.3-28.67 40.52-.83 4.46-3.76 7.86-7.27 7.86-3.5 0-6.43-3.4-7.27-7.86-4.18-1.18-8.2-3.3-11.78-6.46l1.92-4.58c3.1 2.58 6.35 4.46 9.78 5.52.92-4.58 3.84-8 7.35-8 3.5 0 6.44 3.42 7.36 8 12.28-4 22.06-17.85 24.73-35.12-3.18-1.3-5.52-5.4-5.52-10.2 0-4.83 2.35-8.82 5.45-10.23-1.26-7.3-3.68-14.1-7.28-19.86l.1 6-3.77.1-.17-13.14c0-.7.17-1.4.5-1.88.42-.6.84-.83 1.34-.83l9.53-.24.08 5.4-5.35.12c4.43 6.8 7.52 15.03 8.86 24.07 3.42 1.18 5.93 5.4 5.93 10.46zm-66.54 30.77l.08-6.8 3.76.1-.17 13.4c0 .7-.17 1.3-.58 1.88-.35.47-.85.7-1.27.7h-.08l-9.36-.23.07-5.3 4.85.13c-4.35-6.93-7.36-15.38-8.6-24.3-3.35-1.18-5.78-5.4-5.78-10.34 0-5.04 2.5-9.27 5.85-10.33 3-19.85 14.3-35.82 28.5-39.93.75-4.8 3.76-8.45 7.43-8.45 3.68 0 6.77 3.63 7.44 8.56 4 1.17 7.86 3.17 11.45 6.22l-2 4.58c-3-2.58-6.27-4.34-9.7-5.5-1 4.33-3.84 7.5-7.2 7.5-3.4 0-6.25-3.17-7.17-7.5-12.3 3.86-22.07 17.48-24.9 34.63 3.16 1.28 5.5 5.4 5.5 10.2 0 4.94-2.42 9.05-5.6 10.22 1.17 7.64 3.77 14.68 7.44 20.55zm18.97-5.4l3.5-2.93V606.5h-5.34v5.4h-3.76v-7.98c0-1.53.83-2.7 1.84-2.7h7.28v-15.27l-3.43-3.05-8.6 6.8v.83h8.6v5.3h-8.6v1.5c0 1.07-.43 1.9-1 2.36l-4.7 3.52v10.45l4.7 3.4c0 .12.07.12.07.12h7.6c1.1 0 1.93 1.17 1.93 2.7v7.98h-3.85v-5.3h-4.76v4.83zm11.28-51.8l-3.93 3.18v7.28h6.02v-2.7h3.76v5.3c0 1.5-.83 2.7-1.84 2.7h-7.94v32.4l2.17 1.88v-7.62c0-1.4.9-2.6 1.92-2.6h3.84v5.3h-1.92v5.05l6.6-5.52v-7.86c0-1.06.42-2 1-2.47l4.7-3.4v-4.46h-6.62v5.3c0 1.52-.83 2.7-1.92 2.7h-7.6v-5.3h5.76v-5.4c0-1.4.84-2.58 1.84-2.58h8.53v-.7l-4.68-3.53c-.6-.48-1-1.3-1-2.36v-7.63zm28.67 31.72c2.1 0 3.84-2.36 3.84-5.3 0-2.93-1.75-5.28-3.84-5.28-2.1 0-3.76 2.35-3.76 5.3 0 2.92 1.67 5.27 3.76 5.27zm-34.2 48.14c2.1 0 3.77-2.47 3.77-5.4 0-2.94-1.68-5.3-3.77-5.3-2.1 0-3.76 2.36-3.76 5.3 0 2.93 1.67 5.4 3.76 5.4zM687 609.2c0 2.94 1.76 5.3 3.85 5.3 2.1 0 3.76-2.36 3.76-5.3 0-2.93-1.66-5.28-3.75-5.28-2.1 0-3.85 2.35-3.85 5.3zm38.03-53.43c-2.1 0-3.76 2.47-3.76 5.4 0 2.94 1.67 5.3 3.76 5.3 2.1 0 3.76-2.36 3.76-5.3 0-2.93-1.68-5.4-3.77-5.4z" stroke="#000" stroke-opacity="0"/><path d="M743.87 565.3l3.98 4.1 9.95 21.4 2.62 11.38 4.3 5.57-2.55 8.42-3.74 5.13-2.7 11.72-10.5 16.84-12.5 8.08-7.88 7.96-7.16-7.28-11.7-5-3.98-4.44-7.4-11.72-5.02-18.78-4.45-7.28.56-7.4 4.14-5.24 4.86-16.84 6.76-10.35 11.94-10.02 5.88-2.5 3.03-6.83 5.9-.1 4.53 7.73z" stroke="#000" stroke-opacity="0" fill-opacity="0"/><use xlink:href="#v" transform="matrix(1,0,0,1,653.2422480725351,676.924468930363) translate(54.77278645833334 23.270507812499993)"/><path d="M547.98 639.86l-4.43-3.88h-.25l-4.85 4c-.6.46-1.25.46-1.92 0l-10.37-8.7c-.58-.47-.92-1.4-.92-2.35v-7.86l-4.76-3.4c-.6-.48-1-1.42-1-2.47v-13.5c0-1.07.4-1.9 1-2.36l4.76-3.52v-7.64c0-.93.34-1.76.92-2.23l10.53-8.57c.66-.47 1.4-.47 2 .12l4.26 3.87 4.93-4c.58-.46 1.33-.46 1.92 0l10.53 8.58c.58.47.92 1.3.92 2.23v7.64l4.76 3.52c.6.47 1 1.3 1 2.35v13.5c0 1.05-.4 2-1.08 2.46l-4.68 3.4v7.88c0 .93-.34 1.87-.92 2.34l-10.45 8.7c-.25.23-.6.35-.92.35-.34 0-.67-.12-1-.47zm37.1-30.65c0 5.06-2.5 9.28-5.84 10.34-2.85 20.2-14.2 36.3-28.67 40.52-.84 4.46-3.76 7.86-7.27 7.86-3.5 0-6.44-3.4-7.28-7.86-4.17-1.18-8.2-3.3-11.78-6.46l1.92-4.58c3.1 2.58 6.35 4.46 9.78 5.52.92-4.58 3.85-8 7.36-8 3.5 0 6.43 3.42 7.35 8 12.3-4 22.07-17.85 24.74-35.12-3.18-1.3-5.52-5.4-5.52-10.2 0-4.83 2.34-8.82 5.43-10.23-1.25-7.3-3.67-14.1-7.26-19.86l.08 6-3.76.1-.17-13.14c0-.7.16-1.4.5-1.88.4-.6.83-.83 1.33-.83l9.53-.24.08 5.4-5.35.12c4.42 6.8 7.52 15.03 8.85 24.07 3.43 1.18 5.94 5.4 5.94 10.46zm-66.52 30.77l.08-6.8 3.76.1-.17 13.4c0 .7-.16 1.3-.58 1.88-.34.47-.84.7-1.26.7h-.1l-9.35-.23.08-5.3 4.85.13c-4.34-6.93-7.35-15.38-8.6-24.3-3.35-1.18-5.77-5.4-5.77-10.34 0-5.04 2.5-9.27 5.86-10.33 3-19.85 14.3-35.82 28.5-39.93.75-4.8 3.76-8.45 7.44-8.45 3.67 0 6.77 3.63 7.44 8.56 4 1.17 7.85 3.17 11.45 6.22l-2.02 4.58c-3-2.58-6.27-4.34-9.7-5.5-1 4.33-3.84 7.5-7.18 7.5-3.43 0-6.27-3.17-7.2-7.5-12.28 3.86-22.06 17.48-24.9 34.63 3.18 1.28 5.52 5.4 5.52 10.2 0 4.94-2.43 9.05-5.6 10.22 1.17 7.64 3.76 14.68 7.44 20.55zm18.97-5.4l3.5-2.93V606.5h-5.34v5.4h-3.77v-7.98c0-1.53.84-2.7 1.84-2.7h7.27v-15.27l-3.43-3.05-8.6 6.8v.83h8.6v5.3H529v1.5c0 1.07-.4 1.9-1 2.36l-4.68 3.52v10.45l4.68 3.4c0 .12.08.12.08.12h7.6c1.1 0 1.93 1.17 1.93 2.7v7.98h-3.83v-5.3H529v4.83zm11.28-51.8l-3.92 3.18v7.28h6.02v-2.7h3.76v5.3c0 1.5-.83 2.7-1.83 2.7h-7.95v32.4l2.18 1.88v-7.62c0-1.4.92-2.6 1.92-2.6h3.85v5.3h-1.93v5.05l6.6-5.52v-7.86c0-1.06.42-2 1-2.47l4.7-3.4v-4.46h-6.6v5.3c0 1.52-.85 2.7-1.94 2.7h-7.6v-5.3h5.77v-5.4c0-1.4.83-2.58 1.83-2.58h8.53v-.7l-4.7-3.53c-.58-.48-1-1.3-1-2.36v-7.63zm28.68 31.72c2.1 0 3.85-2.36 3.85-5.3 0-2.93-1.76-5.28-3.85-5.28-2.1 0-3.76 2.35-3.76 5.3 0 2.92 1.67 5.27 3.76 5.27zm-34.18 48.14c2.1 0 3.76-2.47 3.76-5.4 0-2.94-1.67-5.3-3.76-5.3-2.1 0-3.76 2.36-3.76 5.3 0 2.93 1.67 5.4 3.76 5.4zm-38.03-53.43c0 2.94 1.75 5.3 3.84 5.3 2.1 0 3.77-2.36 3.77-5.3 0-2.93-1.67-5.28-3.76-5.28-2.08 0-3.83 2.35-3.83 5.3zm38.03-53.43c-2.1 0-3.76 2.47-3.76 5.4 0 2.94 1.67 5.3 3.76 5.3 2.1 0 3.76-2.36 3.76-5.3 0-2.93-1.67-5.4-3.76-5.4z" stroke="#000" stroke-opacity="0"/><path d="M562.13 565.3l3.98 4.1 9.96 21.4 2.63 11.38 4.28 5.57-2.55 8.42-3.73 5.13-2.7 11.72-10.5 16.84-12.5 8.08-7.88 7.96-7.16-7.28-11.7-5-3.98-4.44-7.4-11.72-5-18.78-4.47-7.28.57-7.4 4.13-5.24 4.86-16.84 6.76-10.35 11.94-10.02 5.9-2.5 3-6.83 5.9-.1 4.53 7.73z" stroke="#000" stroke-opacity="0" fill-opacity="0"/><use xlink:href="#w" transform="matrix(1,0,0,1,471.5047374922538,676.924468930363) translate(54.77278645833334 23.270507812499993)"/><path d="M823.46 642.1l-4.43-3.86h-.25l-4.85 4c-.6.46-1.26.46-1.92 0l-10.36-8.7c-.58-.47-.92-1.4-.92-2.35v-7.88l-4.76-3.4c-.6-.47-1-1.4-1-2.47v-13.5c0-1.06.4-1.88 1-2.36l4.76-3.53v-7.63c0-.94.34-1.76.92-2.23l10.53-8.57c.67-.47 1.42-.47 2 .12l4.27 3.88 4.93-4c.6-.47 1.34-.47 1.92 0l10.53 8.58c.58.48.92 1.3.92 2.24v7.63l4.76 3.52c.6.47 1 1.3 1 2.34v13.5c0 1.07-.4 2-1.07 2.48l-4.68 3.4v7.87c0 .93-.34 1.87-.92 2.34l-10.45 8.7c-.25.22-.6.34-.92.34-.34 0-.67-.12-1-.47zm37.1-30.64c0 5.05-2.5 9.28-5.84 10.33-2.85 20.2-14.2 36.28-28.67 40.5-.84 4.47-3.76 7.88-7.27 7.88-3.5 0-6.44-3.4-7.28-7.87-4.17-1.16-8.2-3.28-11.78-6.45l1.92-4.58c3.1 2.6 6.35 4.46 9.78 5.52.92-4.6 3.85-8 7.36-8 3.5 0 6.43 3.4 7.35 8 12.3-4 22.07-17.86 24.74-35.12-3.17-1.3-5.5-5.4-5.5-10.22s2.33-8.8 5.42-10.22c-1.27-7.28-3.7-14.1-7.28-19.84l.08 6-3.76.1-.17-13.15c0-.7.17-1.4.5-1.88.42-.6.84-.82 1.34-.82l9.54-.24.08 5.42-5.35.1c4.43 6.83 7.52 15.05 8.86 24.1 3.43 1.16 5.94 5.4 5.94 10.44zm-66.52 30.77l.08-6.8 3.76.1-.17 13.4c0 .7-.16 1.3-.57 1.87-.34.47-.84.7-1.26.7h-.08l-9.37-.23.08-5.28 4.86.1c-4.35-6.93-7.36-15.38-8.6-24.3-3.35-1.18-5.78-5.4-5.78-10.34 0-5.05 2.5-9.28 5.86-10.33 3-19.85 14.3-35.82 28.5-39.93.75-4.82 3.76-8.46 7.44-8.46 3.67 0 6.77 3.64 7.43 8.57 4.03 1.2 7.87 3.2 11.46 6.24l-2 4.58c-3-2.6-6.27-4.35-9.7-5.52-1 4.34-3.84 7.5-7.18 7.5-3.43 0-6.27-3.16-7.2-7.5-12.28 3.87-22.06 17.5-24.9 34.64 3.18 1.3 5.52 5.4 5.52 10.22 0 4.93-2.43 9.04-5.6 10.22 1.17 7.63 3.76 14.68 7.43 20.55zm18.97-5.4l3.52-2.94v-25.14h-5.35v5.4h-3.76v-8c0-1.5.84-2.7 1.85-2.7h7.27v-15.25l-3.43-3.05-8.62 6.82v.82h8.6v5.27h-8.6v1.53c0 1.06-.4 1.88-1 2.35l-4.68 3.52v10.45l4.68 3.4c0 .13.08.13.08.13h7.6c1.1 0 1.93 1.17 1.93 2.7v7.98h-3.85v-5.28h-4.77v4.8zm11.3-51.8l-3.94 3.18v7.3h6.02v-2.7h3.76v5.27c0 1.53-.83 2.7-1.84 2.7h-7.94v32.42l2.18 1.87v-7.64c0-1.4.92-2.58 1.92-2.58h3.84v5.28h-1.92v5.05l6.6-5.52v-7.87c0-1.06.42-2 1-2.47l4.7-3.4v-4.47h-6.6v5.28c0 1.53-.85 2.7-1.94 2.7h-7.6v-5.28h5.76v-5.4c0-1.4.84-2.6 1.84-2.6h8.53v-.7l-4.68-3.5c-.6-.48-1-1.3-1-2.36v-7.63zm28.66 31.72c2.1 0 3.85-2.35 3.85-5.3 0-2.93-1.75-5.28-3.84-5.28-2.1 0-3.76 2.35-3.76 5.3 0 2.93 1.67 5.27 3.76 5.27zm-34.18 48.14c2.1 0 3.76-2.47 3.76-5.4 0-2.94-1.67-5.3-3.76-5.3-2.1 0-3.77 2.36-3.77 5.3 0 2.93 1.7 5.4 3.78 5.4zm-38.03-53.44c0 2.94 1.75 5.28 3.84 5.28 2.08 0 3.75-2.34 3.75-5.28 0-2.94-1.67-5.3-3.76-5.3-2.1 0-3.86 2.36-3.86 5.3zm38.03-53.43c-2.1 0-3.77 2.46-3.77 5.4 0 2.93 1.7 5.28 3.78 5.28 2.1 0 3.76-2.34 3.76-5.27 0-2.94-1.67-5.4-3.76-5.4z" stroke="#000" stroke-opacity="0"/><path d="M837.6 567.56l4 4.1 9.94 21.4 2.62 11.37 4.3 5.58-2.55 8.43-3.73 5.12-2.7 11.72-10.5 16.84-12.5 8.1-7.87 7.96-7.17-7.28-11.7-5-3.97-4.45-7.4-11.72-5-18.77-4.47-7.28.55-7.4 4.13-5.23 4.86-16.84 6.76-10.36 11.94-10 5.9-2.52 3-6.82 5.9-.12 4.53 7.74z" stroke="#000" stroke-opacity="0" fill-opacity="0"/><use xlink:href="#x" transform="matrix(1,0,0,1,746.9840591556245,679.1789594535401) translate(54.77278645833334 23.270507812499993)"/><path d="M451.22 471.72a6 6 0 0 1 6-6h355.8a6 6 0 0 1 6 6v54.8a6 6 0 0 1-6 6h-355.8a6 6 0 0 1-6-6z" stroke="#000" fill="#9ecae1"/><use xlink:href="#y" transform="matrix(1,0,0,1,456.2232435844839,470.7238800338529) translate(93.47482638888893 37.355468749999986)"/><use xlink:href="#z" transform="matrix(1,0,0,1,456.2232435844839,470.7238800338529) translate(213.21006944444443 37.355468749999986)"/><path d="M618.1 770.6a6 6 0 0 1 6-6h374.47a6 6 0 0 1 6 6v84a6 6 0 0 1-6 6H624.1a6 6 0 0 1-6-6z" stroke="#000" stroke-opacity="0" fill="#9ecae1"/><use xlink:href="#A" transform="matrix(1,0,0,1,623.1110003556728,769.5859868588651) translate(11.951605902777885 52.525390624999986)"/><use xlink:href="#B" transform="matrix(1,0,0,1,623.1110003556728,769.5859868588651) translate(95.03320312500006 52.525390624999986)"/><use xlink:href="#C" transform="matrix(1,0,0,1,623.1110003556728,769.5859868588651) translate(240.42599826388886 52.525390624999986)"/><path d="M-588.42 780.64a6 6 0 0 1 6-6h325.56a6 6 0 0 1 6 6v73.97a6 6 0 0 1-6 6h-325.56a6 6 0 0 1-6-6z" stroke="#000" stroke-opacity="0" fill="#9ecae1"/><use xlink:href="#D" transform="matrix(1,0,0,1,-583.4185654304139,779.6370184166918) translate(8.2220052083334 47.056640624999986)"/><use xlink:href="#E" transform="matrix(1,0,0,1,-583.4185654304139,779.6370184166918) translate(91.30360243055559 47.056640624999986)"/><use xlink:href="#F" transform="matrix(1,0,0,1,-583.4185654304139,779.6370184166918) translate(236.69639756944443 47.056640624999986)"/><path d="M-1082.66 667.1h40.68v56.62h-40.68z" fill="#fff" fill-opacity="0"/><use xlink:href="#G" transform="matrix(1,0,0,1,-1077.6641358135082,672.1013614287987) translate(-33.61588541666666 30.055989583333336)"/><path d="M-769.74 675.4h38.83v49.75h-38.84z" fill="#fff" fill-opacity="0"/><use xlink:href="#H" transform="matrix(1,0,0,1,-764.7375319298474,680.3919122667686) translate(0 19.8046875)"/><path d="M638.4 639.86l-4.42-3.88h-.25l-4.85 4c-.58.46-1.25.46-1.92 0l-10.36-8.7c-.6-.47-.92-1.4-.92-2.35v-7.86l-4.77-3.4c-.57-.48-1-1.42-1-2.47v-13.5c0-1.07.43-1.9 1-2.36l4.78-3.52v-7.64c0-.93.33-1.76.92-2.23l10.53-8.57c.67-.47 1.42-.47 2 .12l4.27 3.87 4.93-4c.58-.46 1.34-.46 1.92 0l10.53 8.58c.6.47.92 1.3.92 2.23v7.64l4.77 3.52c.58.47 1 1.3 1 2.35v13.5c0 1.05-.42 2-1.1 2.46l-4.67 3.4v7.88c0 .93-.33 1.87-.92 2.34l-10.44 8.7c-.26.23-.6.35-.92.35-.34 0-.67-.12-1-.47zm37.12-30.65c0 5.06-2.5 9.28-5.85 10.34-2.84 20.2-14.2 36.3-28.67 40.52-.83 4.46-3.76 7.86-7.27 7.86-3.5 0-6.43-3.4-7.27-7.86-4.18-1.18-8.2-3.3-11.8-6.46l1.94-4.58c3.1 2.58 6.35 4.46 9.78 5.52.92-4.58 3.84-8 7.35-8 3.5 0 6.44 3.42 7.36 8 12.27-4 22.05-17.85 24.73-35.12-3.18-1.3-5.52-5.4-5.52-10.2 0-4.83 2.35-8.82 5.44-10.23-1.25-7.3-3.67-14.1-7.27-19.86l.1 6-3.78.1-.17-13.14c0-.7.16-1.4.5-1.88.42-.6.84-.83 1.34-.83l9.52-.24.08 5.4-5.35.12c4.43 6.8 7.52 15.03 8.86 24.07 3.42 1.18 5.92 5.4 5.92 10.46zM609 639.98l.08-6.8 3.76.1-.17 13.4c0 .7-.17 1.3-.6 1.88-.32.47-.82.7-1.24.7h-.08l-9.37-.23.1-5.3 4.84.13c-4.35-6.93-7.36-15.38-8.6-24.3-3.36-1.18-5.78-5.4-5.78-10.34 0-5.04 2.5-9.27 5.85-10.33 3-19.85 14.28-35.82 28.5-39.93.75-4.8 3.75-8.45 7.43-8.45 3.68 0 6.77 3.63 7.44 8.56 4 1.17 7.86 3.17 11.45 6.22l-2 4.58c-3-2.58-6.27-4.34-9.7-5.5-1 4.33-3.84 7.5-7.2 7.5-3.42 0-6.26-3.17-7.18-7.5-12.28 3.86-22.06 17.48-24.9 34.63 3.17 1.28 5.5 5.4 5.5 10.2 0 4.94-2.4 9.05-5.6 10.22 1.18 7.64 3.77 14.68 7.45 20.55zm18.97-5.4l3.5-2.93V606.5h-5.34v5.4h-3.76v-7.98c0-1.53.83-2.7 1.83-2.7h7.27v-15.27l-3.42-3.05-8.6 6.8v.83h8.6v5.3h-8.6v1.5c0 1.07-.43 1.9-1 2.36l-4.7 3.52v10.45l4.7 3.4c0 .12.07.12.07.12h7.6c1.1 0 1.93 1.17 1.93 2.7v7.98h-3.85v-5.3h-4.76v4.83zm11.28-51.8l-3.93 3.18v7.28h6.02v-2.7h3.76v5.3c0 1.5-.84 2.7-1.84 2.7h-7.94v32.4l2.17 1.88v-7.62c0-1.4.9-2.6 1.92-2.6h3.84v5.3h-1.92v5.05l6.6-5.52v-7.86c0-1.06.42-2 1-2.47l4.68-3.4v-4.46h-6.6v5.3c0 1.52-.83 2.7-1.92 2.7h-7.6v-5.3h5.76v-5.4c0-1.4.84-2.58 1.84-2.58h8.52v-.7l-4.68-3.53c-.58-.48-1-1.3-1-2.36v-7.63zm28.67 31.72c2.1 0 3.84-2.36 3.84-5.3 0-2.93-1.75-5.28-3.84-5.28-2.1 0-3.76 2.35-3.76 5.3 0 2.92 1.67 5.27 3.76 5.27zm-34.2 48.14c2.1 0 3.77-2.47 3.77-5.4 0-2.94-1.68-5.3-3.77-5.3-2.1 0-3.76 2.36-3.76 5.3 0 2.93 1.67 5.4 3.76 5.4zM595.7 609.2c0 2.94 1.76 5.3 3.85 5.3 2.1 0 3.76-2.36 3.76-5.3 0-2.93-1.66-5.28-3.75-5.28-2.1 0-3.85 2.35-3.85 5.3zm38.03-53.43c-2.1 0-3.76 2.47-3.76 5.4 0 2.94 1.67 5.3 3.76 5.3 2.1 0 3.76-2.36 3.76-5.3 0-2.93-1.68-5.4-3.77-5.4z" stroke="#000" stroke-opacity="0"/><path d="M652.57 565.3l3.98 4.1 9.95 21.4 2.62 11.38 4.3 5.57-2.55 8.42-3.74 5.13-2.7 11.72-10.5 16.84-12.5 8.08-7.88 7.96-7.16-7.28-11.7-5-4-4.44-7.38-11.72-5.02-18.78-4.45-7.28.55-7.4 4.14-5.24 4.86-16.84 6.76-10.35 11.93-10.02 5.88-2.5 3.03-6.83 5.9-.1 4.53 7.73z" stroke="#000" stroke-opacity="0" fill-opacity="0"/><use xlink:href="#I" transform="matrix(1,0,0,1,561.9406040771936,676.924468930363) translate(54.77278645833334 23.270507812499993)"/><path d="M-87.3 617.62h14.2m14.22 0h14.2" stroke="#000" stroke-width="2" fill="none"/><path d="M-87.27 616.62v2h-1.02v-2z" stroke="#000" stroke-width=".05"/><path d="M-29.4 617.62l-14.28 4.64V613z" stroke="#000" stroke-width="2"/><path d="M-985.6 668.53h64.35v56.62h-64.34z" fill="#fff" fill-opacity="0"/><use xlink:href="#J" transform="matrix(1,0,0,1,-980.5882212940016,673.5289130447583) translate(-26.74739583333332 30.055989583333336)"/><path d="M125.94 595.84v51.42H88.7v-51.42h37.24m2.68-2.73h-42.6V650h42.6v-56.9z" stroke="#fff" stroke-opacity="0" stroke-width="3"/><path d="M119 602.25h3.38v2.7h-3.4v-2.7zM92.25 602.25h24.33v2.7H92.25v-2.7zM105.8 611.23h16.6v2.7h-16.6v-2.7zM98.1 611.23h5.63v2.7H98.1v-2.7zM92.25 611.23h3.04v2.7h-3.05v-2.7zM104.42 620.2h17.97v2.7H104.4v-2.7zM92.25 620.2h9.77v2.7h-9.77v-2.7zM92.25 629.16h30.13v2.7H92.25v-2.7zM117.1 638.14h5.3v2.7h-5.3v-2.7zM92.25 638.14h21.84v2.7H92.24v-2.7z" stroke="#fff" stroke-opacity="0" stroke-width="3"/><path d="M138.06 658.16h-45.3v-5.43h2.73v2.75h39.84v-54.32h-4.03v-2.7h6.76v59.7z" stroke="#fff" stroke-opacity="0" stroke-width="3"/><path d="M100.24 668.84h34.7v49.75h-34.7z" fill="#fff" fill-opacity="0"/><use xlink:href="#K" transform="matrix(1,0,0,1,105.24320273355386,673.8359393380262) translate(-2.1614583333333197 19.804687499999982)"/><path d="M200.4 668.84h44.35v49.75H200.4z" fill="#fff" fill-opacity="0"/><use xlink:href="#L" transform="matrix(1,0,0,1,205.4045275090263,673.8359393380262) translate(10.16927083333334 19.804687499999982)"/><path d="M148.92 596.82h34.7v56.36h-34.7z" fill="#fff" fill-opacity="0"/><use xlink:href="#r" transform="matrix(1,0,0,1,153.91692798267798,601.8201886562283) translate(-13.15755208333331 23.10546874999998)"/><path d="M953.7 608.47a6 6 0 0 1 6-6h198.9a6 6 0 0 1 6 6v34.33a6 6 0 0 1-6 6H959.7a6 6 0 0 1-6-6z" stroke="#000" fill="#9ecae1"/><use xlink:href="#K" transform="matrix(1,0,0,1,958.6869024683648,607.4715893903851) translate(85.83854166666669 24.429687499999982)"/><path d="M953.7 685.83a6 6 0 0 1 6-6h198.9a6 6 0 0 1 6 6v34.33a6 6 0 0 1-6 6H959.7a6 6 0 0 1-6-6z" stroke="#000" fill="#9ecae1"/><use xlink:href="#L" transform="matrix(1,0,0,1,958.6869024683648,684.8265556239368) translate(93.16927083333334 24.429687499999982)"/><path d="M1028.7 633.8h60.88v56.35h-60.88z" fill="#fff" fill-opacity="0"/><use xlink:href="#r" transform="matrix(1,0,0,1,1033.7019878669867,638.786654549338) translate(-0.15755208333331083 23.10546874999998)"/><path d="M-911.87 724.72v11m0 11v11l-.07.94-.22.9-.36.88-.5.8-.6.72-.72.6-.8.5-.88.37-.9.22-.95.07h-10.38m-10.38 0H-949l-.95-.08-.9-.22-.88-.35-.8-.5-.72-.6-.6-.72-.5-.8-.36-.88-.23-.9-.08-.95v-6l.07-.95.22-.9.35-.88.5-.82.6-.7.72-.62.8-.5.87-.36.9-.22.95-.07h10m10 0h20m10 0h20m10 0h20m10 0h20m10 0h20m10 0h20m10 0h20m10 0h20m10 0h20m10 0h20m10 0h20m10 0h20m10 0h20m10 0h20m10 0h20m10 0h20m10 0h20m10 0h20m10 0h20m10 0h20m10 0h20m10 0h20m10 0h20m10 0h20m10 0h20m10 0h10l.94-.06.92-.22.87-.36.8-.5.72-.6.6-.72.5-.8.36-.88.23-.9.07-.95v-7.85m0-7.86v-15.73m0-7.86v-7.85" stroke="#000" stroke-width="2" fill="none"/><path d="M-910.87 724.75h-2v-1.03h2z" stroke="#000" stroke-width=".05"/><path d="M-163 677.28l4.64 14.27h-9.27z" stroke="#000" stroke-width="2"/><path d="M293.77 610.06h32.6a6 6 0 0 0 6-6v-43.7a6 6 0 0 1 6-6h16.7M293.8 610.06h-.53" stroke="#000" fill="none"/><path d="M369.83 554.35L355.57 559v-9.28z" stroke="#000"/><path d="M294.7 613.7h31.2a6 6 0 0 1 6 6v42.87a6 6 0 0 0 6 6h15.32M294.7 613.7h-.5" stroke="#000" fill="none"/><path d="M367.98 668.57l-14.26 4.63v-9.27z" stroke="#000"/><path d="M-836.83 593.4v11.7l-12.44-7.2v-27.73h-29.13v40.13h14.42l1.56 18.1h-10.96v40.13h29.13V640.6l7.42-7.18v.1h29.13v-40.13zm18.24 24.28c-.55 3.54-2.6 5.6-4.58 4.62-.7-.4-1.28-1.08-1.77-2.16l-9.9 9.54-1.98 1.87-7.42 7.18-1.98 1.87-9.05 8.75c.56 3.54-.57 7.18-2.55 8.26-1.9 1-3.96-.97-4.52-4.5-.57-3.46.42-7 2.26-8.18l-.63-7.77-.77-8.75-1.56-18.1-.28-3.44-.64-7.48c-2.05-.1-3.67-3.24-3.53-6.88.06-3.64 1.75-6.5 3.8-6.4 2.05.2 3.6 3.25 3.54 7v.38l8.9 5.12 2 1.08 12.43 7.18 1.98 1.18 9.26 5.3c.8-3.43 2.98-5 4.9-3.63 1.7 1.3 2.6 4.73 2.1 7.98z" stroke="#000" stroke-opacity="0" stroke-width=".15"/><path d="M-825.85 616.06l-9-5.14-1.96-1.12-12.52-7.2-1.9-1.13-9.43-5.4c-.37 1.18-.8 2-1.47 2.6-.1.1-.22.2-.37.3l.67 7.84.34 3.5 1.55 18.1.74 8.7.65 7.47c.26.05.48.1.73.26.74.35 1.33 1 1.8 2.08l9.8-9.4 1.94-1.87 7.47-7.22 1.94-1.87 9.16-8.8c-.07-.56-.15-1.06-.15-1.67zm-10.96 10.47l-7.48 7.22v-5.34h-14.75l-1.54-18.1h11.25v-5.98l12.5 7.2z" stroke="#000" stroke-opacity="0" stroke-width=".15"/><path d="M-895 674.08h38.85v49.76H-895z" fill="#fff" fill-opacity="0"/><g><use xlink:href="#M" transform="matrix(1,0,0,1,-889.9871724576717,679.0841034371298) translate(0 19.8046875)"/></g><defs><path d="M942-1155H387v424h526v149H387V0H205v-1307h737v152" id="N"/><path d="M944 0H201v-1307h743v150H379v405h543v150H379v450h565V0" id="O"/><path d="M1008 0H776C612-359 436-705 285-1077V0H119v-1307h229C513-951 686-602 842-236v-1071h166V0" id="P"/><path d="M610-1171c-171-1-297 47-297 188 0 178 206 201 342 264 161 75 342 139 342 365C997-75 766 18 479 18 345 18 218 0 111-27v-172c107 39 230 61 381 60 176-2 319-36 319-205 0-129-118-168-217-212-164-73-357-121-438-276-39-75-39-184-1-265 71-151 232-228 459-228 108 0 209 19 299 39v160c-92-26-193-44-303-45" id="Q"/><g id="a"><use transform="matrix(0.014105902777777764,0,0,0.014105902777777764,0,0)" xlink:href="#N"/><use transform="matrix(0.014105902777777764,0,0,0.014105902777777764,15.883246527777763,0)" xlink:href="#O"/><use transform="matrix(0.014105902777777764,0,0,0.014105902777777764,31.766493055555525,0)" xlink:href="#P"/><use transform="matrix(0.014105902777777764,0,0,0.014105902777777764,47.649739583333286,0)" xlink:href="#Q"/></g><path d="M1116 0H922l-91-285H287L195 0H10l434-1307h244zM780-444l-221-699-221 699h442" id="R"/><path d="M502-1270H205v-143h473v1268h299V0H172v-145h330v-1125" id="S"/><path d="M549-1022c47-1 96 7 131 18h364v142H883c35 44 59 106 59 182 0 231-159 343-393 350-77 2-160-19-205-47-35 43-74 130-8 172 25 16 56 25 96 27 184 11 397-8 512 78 55 41 96 98 96 188 0 250-225 332-493 332-199 0-357-36-428-156-18-31-25-66-25-104C94 39 153-14 233-74c-59-28-100-80-100-162 0-98 56-163 103-221-46-55-84-114-80-215 8-230 158-343 393-350zM389-27c-58 40-110 81-110 172 0 47 25 81 74 103s118 33 206 33c156 0 295-34 295-175C854 5 765-14 651-18zm160-864c-135 0-217 83-217 215 0 135 82 215 217 215 136 0 217-83 217-215 0-135-82-215-217-215" id="T"/><path d="M573-1022c313 0 461 194 461 512 0 247-104 414-279 490-59 26-127 38-202 38C239 18 92-177 92-496c0-247 105-411 279-488 59-26 127-38 202-38zm-10 893c211 0 293-160 293-373 0-219-81-372-293-372-211 0-293 160-293 372 0 219 81 373 293 373" id="U"/><g id="b"><use transform="matrix(0.014105902777777764,0,0,0.014105902777777764,0,0)" xlink:href="#R"/><use transform="matrix(0.014105902777777764,0,0,0.014105902777777764,15.883246527777763,0)" xlink:href="#S"/><use transform="matrix(0.014105902777777764,0,0,0.014105902777777764,31.766493055555525,0)" xlink:href="#T"/><use transform="matrix(0.014105902777777764,0,0,0.014105902777777764,47.649739583333286,0)" xlink:href="#U"/></g><path d="M616-1118c-128 0-239 24-239 145 0 107 115 132 203 167 201 81 440 137 440 411 0 304-225 418-533 418C339 23 216 7 98-29v-243c117 39 243 77 394 77 139 0 258-29 258-159 0-160-195-172-320-226-161-69-319-144-319-370 0-274 208-379 497-379 115 0 223 18 316 41v225c-87-31-192-55-308-55" id="V"/><path d="M756-172c79 0 159-16 221-33v195C899 8 807 23 717 23 466 25 332-79 332-330v-496H59v-190h273v-260l250-65v325h395v190H582v478c2 119 51 176 174 176" id="W"/><path d="M55 203c63 10 149 22 205-4C341 161 391 85 426 0L23-1016h272c91 254 188 502 274 762 88-257 183-508 275-762h262L750-111c-91 217-183 409-390 497-85 35-200 42-305 24V203" id="X"/><path d="M467-1223H180v-190h537v1223h293V0H145v-190h322v-1033" id="Y"/><path d="M573-1038c325 0 481 193 481 522 0 331-170 539-501 539C226 23 72-171 72-502s172-536 501-536zm-8 850c177 0 233-143 235-322 3-189-62-317-235-317-178 0-236 140-239 319-3 188 71 320 239 320" id="Z"/><path d="M850-1036c166 0 216 126 217 307V0H856v-692c-4-70 8-152-59-152-21 0-41 14-61 42s-43 76-68 143V0H459v-692c-4-70 8-149-60-152-17 0-37 14-58 42s-45 76-71 143V0H59v-1016h181l4 148c45-85 85-167 209-168 114-1 172 64 180 168 49-84 90-168 217-168" id="aa"/><path d="M580-1038c335 3 479 234 438 592H350c4 180 106 274 285 274 120 0 230-19 334-49v194C860 2 735 23 598 23c-326 0-496-182-496-510 0-255 103-430 280-511 59-26 125-40 198-40zm196 417c-1-142-64-235-201-235-135 0-210 101-221 235h422" id="ab"/><path d="M410-868c65-97 155-170 315-170 235 0 318 172 313 417H793c3-116-17-213-125-213-36 0-74 14-112 44s-80 79-126 147V0H180v-1016h221" id="ac"/><g id="c"><use transform="matrix(0.015190972222222212,0,0,0.015190972222222212,0,0)" xlink:href="#V"/><use transform="matrix(0.015190972222222212,0,0,0.015190972222222212,17.10503472222221,0)" xlink:href="#W"/><use transform="matrix(0.015190972222222212,0,0,0.015190972222222212,34.21006944444442,0)" xlink:href="#X"/><use transform="matrix(0.015190972222222212,0,0,0.015190972222222212,51.31510416666663,0)" xlink:href="#Y"/><use transform="matrix(0.015190972222222212,0,0,0.015190972222222212,68.42013888888884,0)" xlink:href="#Z"/><use transform="matrix(0.015190972222222212,0,0,0.015190972222222212,85.52517361111106,0)" xlink:href="#aa"/><use transform="matrix(0.015190972222222212,0,0,0.015190972222222212,102.63020833333327,0)" xlink:href="#ab"/><use transform="matrix(0.015190972222222212,0,0,0.015190972222222212,119.73524305555549,0)" xlink:href="#W"/><use transform="matrix(0.015190972222222212,0,0,0.015190972222222212,136.8402777777777,0)" xlink:href="#ac"/><use transform="matrix(0.015190972222222212,0,0,0.015190972222222212,153.9453124999999,0)" xlink:href="#X"/></g><path d="M740 0C600-316 455-628 318-948V0H94v-1307h302c139 313 288 618 420 938v-938h224V0H740" id="ad"/><path d="M600-1034c50 0 106 8 145 18v-397h244V0H778l-6-150C696-60 613 23 451 23 173 23 76-204 76-489c0-349 181-537 524-545zm-12 192c-184 8-256 149-256 342 0 164 22 314 176 314 41 0 81-17 118-50s77-79 119-137v-444c-39-15-103-27-157-25" id="ae"/><path d="M586-858c-99-2-200 48-157 143 17 38 59 52 109 71 187 73 448 86 439 345C969-59 770 18 528 23c-144 3-259-13-372-41v-220c106 45 228 72 364 74 104 1 191-26 191-110 0-75-61-89-125-114-111-44-278-77-356-152-66-63-101-211-46-312 68-126 217-185 416-186 115-1 212 14 301 32v199c-102-33-194-48-315-51" id="af"/><g id="d"><use transform="matrix(0.015190972222222212,0,0,0.015190972222222212,0,0)" xlink:href="#ad"/><use transform="matrix(0.015190972222222212,0,0,0.015190972222222212,17.10503472222221,0)" xlink:href="#Z"/><use transform="matrix(0.015190972222222212,0,0,0.015190972222222212,34.21006944444442,0)" xlink:href="#ae"/><use transform="matrix(0.015190972222222212,0,0,0.015190972222222212,51.31510416666663,0)" xlink:href="#ab"/><use transform="matrix(0.015190972222222212,0,0,0.015190972222222212,68.42013888888884,0)" xlink:href="#af"/></g><path d="M850 0l-72-258H322L248 0H4l387-1307h344L1122 0H850zM553-1067L381-459h342" id="ag"/><path d="M678-1038c215 0 311 139 311 356V0H745v-662c0-111-41-167-124-167-41 0-81 17-119 50s-77 79-119 136V0H139v-1016h211l6 150c75-92 158-172 322-172" id="ah"/><path d="M555-1038c262 0 430 86 430 344V0H776l-6-133C689-47 592 23 426 23 222 23 109-89 109-291c0-297 303-342 632-332v-61c-1-124-79-170-206-170-134 1-248 34-347 78v-195c96-38 232-67 367-67zm-41 868c104-6 156-75 227-143v-136c-177-2-372-15-376 152-2 85 62 132 149 127" id="ai"/><path d="M578-1454c97 0 159 63 159 160s-62 159-159 159-160-62-160-159 62-160 160-160zM467-826H180v-190h537v826h293V0H145v-190h322v-636" id="aj"/><g id="f"><use transform="matrix(0.015190972222222205,0,0,0.015190972222222205,0,0)" xlink:href="#ag"/><use transform="matrix(0.015190972222222205,0,0,0.015190972222222205,17.105034722222204,0)" xlink:href="#ah"/><use transform="matrix(0.015190972222222205,0,0,0.015190972222222205,34.21006944444441,0)" xlink:href="#ai"/><use transform="matrix(0.015190972222222205,0,0,0.015190972222222205,51.315104166666615,0)" xlink:href="#Y"/><use transform="matrix(0.015190972222222205,0,0,0.015190972222222205,68.42013888888881,0)" xlink:href="#X"/><use transform="matrix(0.015190972222222205,0,0,0.015190972222222205,85.52517361111101,0)" xlink:href="#af"/><use transform="matrix(0.015190972222222205,0,0,0.015190972222222205,102.63020833333321,0)" xlink:href="#aj"/><use transform="matrix(0.015190972222222205,0,0,0.015190972222222205,119.73524305555542,0)" xlink:href="#af"/></g><path d="M791-442c19-69 29-150 26-240h227c0 173-37 313-102 424L1155 0H866l-71-86C713-20 606 23 467 23 205 23 31-95 31-352c0-202 111-303 233-385-90-105-183-269-112-445 54-133 171-223 356-223 214 0 366 101 366 307 0 223-159 301-303 385zM383-592c-60 54-110 111-111 219-2 163 153 232 312 183 32-11 60-27 86-50zm74-260c82-55 186-98 186-225 0-85-54-136-141-140-131-5-177 149-118 257 18 33 44 69 73 108" id="ak"/><use transform="matrix(0.015190972222222205,0,0,0.015190972222222205,0,0)" xlink:href="#ak" id="g"/><path d="M689-1102V0H437v-1102H79v-205h968v205H689" id="al"/><g id="h"><use transform="matrix(0.015190972222222205,0,0,0.015190972222222205,0,0)" xlink:href="#ag"/><use transform="matrix(0.015190972222222205,0,0,0.015190972222222205,17.105034722222204,0)" xlink:href="#V"/><use transform="matrix(0.015190972222222205,0,0,0.015190972222222205,34.21006944444441,0)" xlink:href="#al"/></g><path d="M662-197c53 1 91-9 129-22v-334H569v-203h465v697C919-5 796 23 633 23 232 23 47-228 47-635c0-432 208-694 637-694 131 0 240 25 346 57v243c-91-43-215-82-344-80-269 5-377 188-377 462 0 267 87 449 353 450" id="am"/><g id="i"><use transform="matrix(0.015190972222222205,0,0,0.015190972222222205,0,0)" xlink:href="#am"/><use transform="matrix(0.015190972222222205,0,0,0.015190972222222205,17.105034722222204,0)" xlink:href="#ab"/><use transform="matrix(0.015190972222222205,0,0,0.015190972222222205,34.21006944444441,0)" xlink:href="#ah"/></g><path d="M184 0v-1307h787v208H434v325h512v203H434v363h537V0H184" id="an"/><g id="j"><use transform="matrix(0.023871527777777762,0,0,0.023871527777777762,0,0)" xlink:href="#al"/><use transform="matrix(0.023871527777777762,0,0,0.023871527777777762,26.87934027777776,0)" xlink:href="#an"/><use transform="matrix(0.023871527777777762,0,0,0.023871527777777762,53.75868055555552,0)" xlink:href="#V"/><use transform="matrix(0.023871527777777762,0,0,0.023871527777777762,80.63802083333329,0)" xlink:href="#al"/></g><path d="M389-147c0-101 65-168 166-168s166 67 166 168c0 100-66 165-166 165S389-47 389-147" id="ao"/><g id="k"><use transform="matrix(0.014105902777777764,0,0,0.014105902777777764,0,0)" xlink:href="#ao"/><use transform="matrix(0.014105902777777764,0,0,0.014105902777777764,15.883246527777763,0)" xlink:href="#ao"/><use transform="matrix(0.014105902777777764,0,0,0.014105902777777764,31.766493055555525,0)" xlink:href="#ao"/></g><path d="M446-1307c417 2 608 215 607 639C1052-228 833-1 389 0H109v-1307h337zm420 652c0-321-108-508-426-502H287v1003h133c297 0 446-167 446-501" id="ap"/><g id="l"><use transform="matrix(0.014105902777777764,0,0,0.014105902777777764,0,0)" xlink:href="#N"/><use transform="matrix(0.014105902777777764,0,0,0.014105902777777764,15.883246527777763,0)" xlink:href="#O"/><use transform="matrix(0.014105902777777764,0,0,0.014105902777777764,31.766493055555525,0)" xlink:href="#ap"/><use transform="matrix(0.014105902777777764,0,0,0.014105902777777764,47.649739583333286,0)" xlink:href="#Q"/></g><path d="M502-860H205v-144h473v859h299V0H172v-145h330v-715zm-76-428c0-83 53-137 137-137s137 54 137 137-53 137-137 137-137-54-137-137" id="aq"/><use transform="matrix(0.013020833333333322,0,0,0.013020833333333322,0,0)" xlink:href="#aq" id="m"/><path d="M864 0c-11-345-23-689-33-1034-67 217-138 430-208 645H469c-63-214-128-426-186-645-8 347-19 690-29 1034H45l64-1307h278c59 191 121 379 170 580 53-199 116-388 176-580h283L1081 0H864" id="ar"/><path d="M688-195c106 0 195-29 273-61v217C871-3 772 18 651 18c-335 0-518-178-518-514 0-260 125-421 315-498 139-57 373-43 508-1v237c-71-36-173-65-272-65-191 0-289 122-289 315 0 194 102 313 293 313" id="as"/><path d="M373-881c70-86 156-161 305-157 278 8 375 226 375 512 0 349-183 538-525 544-151 3-274-25-389-61v-1370h244c0 181 2 364-10 532zm168 707c184-8 256-149 256-342 0-163-23-313-176-313-41 0-81 17-119 50s-77 79-119 136v444c39 15 103 28 158 25" id="at"/><path d="M678-1038c215 0 311 139 311 356V0H745v-662c0-111-41-167-124-167-41 0-81 17-119 50s-77 79-119 136V0H139v-1413h244c0 181 4 367-12 532 72-85 152-157 307-157" id="au"/><path d="M768 0L393-508V0H149v-1413h244v827l355-430h305L641-553 1087 0H768" id="av"/><g id="n"><use transform="matrix(0.015190972222222212,0,0,0.015190972222222212,0,0)" xlink:href="#ar"/><use transform="matrix(0.015190972222222212,0,0,0.015190972222222212,17.10503472222221,0)" xlink:href="#aj"/><use transform="matrix(0.015190972222222212,0,0,0.015190972222222212,34.21006944444442,0)" xlink:href="#as"/><use transform="matrix(0.015190972222222212,0,0,0.015190972222222212,51.31510416666663,0)" xlink:href="#ac"/><use transform="matrix(0.015190972222222212,0,0,0.015190972222222212,68.42013888888884,0)" xlink:href="#Z"/><use transform="matrix(0.015190972222222212,0,0,0.015190972222222212,85.52517361111106,0)" xlink:href="#at"/><use transform="matrix(0.015190972222222212,0,0,0.015190972222222212,102.63020833333327,0)" xlink:href="#ab"/><use transform="matrix(0.015190972222222212,0,0,0.015190972222222212,119.73524305555549,0)" xlink:href="#ah"/><use transform="matrix(0.015190972222222212,0,0,0.015190972222222212,136.8402777777777,0)" xlink:href="#as"/><use transform="matrix(0.015190972222222212,0,0,0.015190972222222212,153.9453124999999,0)" xlink:href="#au"/><use transform="matrix(0.015190972222222212,0,0,0.015190972222222212,171.0503472222221,0)" xlink:href="#aa"/><use transform="matrix(0.015190972222222212,0,0,0.015190972222222212,188.1553819444443,0)" xlink:href="#ai"/><use transform="matrix(0.015190972222222212,0,0,0.015190972222222212,205.2604166666665,0)" xlink:href="#ac"/><use transform="matrix(0.015190972222222212,0,0,0.015190972222222212,222.3654513888887,0)" xlink:href="#av"/><use transform="matrix(0.015190972222222212,0,0,0.015190972222222212,239.4704861111109,0)" xlink:href="#af"/></g><path d="M449 23c-216 0-312-140-312-357v-682h244v662c0 100 32 166 125 168 41 0 80-16 118-50s77-80 119-137v-643h244V0H776l-6-150C694-59 612 23 449 23" id="aw"/><g id="o"><use transform="matrix(0.01844618055555555,0,0,0.01844618055555555,0,0)" xlink:href="#V"/><use transform="matrix(0.01844618055555555,0,0,0.01844618055555555,20.770399305555546,0)" xlink:href="#Z"/><use transform="matrix(0.01844618055555555,0,0,0.01844618055555555,41.54079861111109,0)" xlink:href="#aw"/><use transform="matrix(0.01844618055555555,0,0,0.01844618055555555,62.31119791666664,0)" xlink:href="#ac"/><use transform="matrix(0.01844618055555555,0,0,0.01844618055555555,83.08159722222219,0)" xlink:href="#as"/><use transform="matrix(0.01844618055555555,0,0,0.01844618055555555,103.85199652777773,0)" xlink:href="#ab"/><use transform="matrix(0.01844618055555555,0,0,0.01844618055555555,124.62239583333327,0)" xlink:href="#as"/><use transform="matrix(0.01844618055555555,0,0,0.01844618055555555,145.39279513888883,0)" xlink:href="#Z"/><use transform="matrix(0.01844618055555555,0,0,0.01844618055555555,166.16319444444437,0)" xlink:href="#ae"/><use transform="matrix(0.01844618055555555,0,0,0.01844618055555555,186.9335937499999,0)" xlink:href="#ab"/></g><path d="M434-1099v362h494v202H434V0H184v-1307h772v208H434" id="ax"/><g id="p"><use transform="matrix(0.01844618055555555,0,0,0.01844618055555555,0,0)" xlink:href="#ax"/><use transform="matrix(0.01844618055555555,0,0,0.01844618055555555,20.770399305555546,0)" xlink:href="#ab"/><use transform="matrix(0.01844618055555555,0,0,0.01844618055555555,41.54079861111109,0)" xlink:href="#ai"/><use transform="matrix(0.01844618055555555,0,0,0.01844618055555555,62.31119791666664,0)" xlink:href="#W"/><use transform="matrix(0.01844618055555555,0,0,0.01844618055555555,83.08159722222219,0)" xlink:href="#aw"/><use transform="matrix(0.01844618055555555,0,0,0.01844618055555555,103.85199652777773,0)" xlink:href="#ac"/><use transform="matrix(0.01844618055555555,0,0,0.01844618055555555,124.62239583333327,0)" xlink:href="#ab"/></g><path d="M547-1036c60 0 117 5 162 20h352v178H901c33 40 51 87 51 152 0 240-163 343-405 348-61 1-130-14-166-35-39 27-59 110-9 145 22 15 49 28 85 29 183 10 389-4 500 82 55 43 98 101 98 193 0 258-236 344-512 344-203 0-366-37-440-158-19-32-27-67-27-106C76 36 148-17 221-72c-57-31-100-87-100-166 0-104 57-161 106-221-49-52-89-117-86-221 7-240 164-356 406-356zM420-12c-49 37-97 66-94 147 4 97 111 115 227 115 134 0 250-31 250-154C803 12 719-6 635-8zm125-854c-116 2-175 72-178 186-2 108 70 178 180 176 115-3 175-70 178-182s-68-182-180-180" id="ay"/><g id="q"><use transform="matrix(0.01844618055555555,0,0,0.01844618055555555,0,0)" xlink:href="#an"/><use transform="matrix(0.01844618055555555,0,0,0.01844618055555555,20.770399305555546,0)" xlink:href="#ah"/><use transform="matrix(0.01844618055555555,0,0,0.01844618055555555,41.54079861111109,0)" xlink:href="#ay"/><use transform="matrix(0.01844618055555555,0,0,0.01844618055555555,62.31119791666664,0)" xlink:href="#aj"/><use transform="matrix(0.01844618055555555,0,0,0.01844618055555555,83.08159722222219,0)" xlink:href="#ah"/><use transform="matrix(0.01844618055555555,0,0,0.01844618055555555,103.85199652777773,0)" xlink:href="#ab"/><use transform="matrix(0.01844618055555555,0,0,0.01844618055555555,124.62239583333327,0)" xlink:href="#ab"/><use transform="matrix(0.01844618055555555,0,0,0.01844618055555555,145.39279513888883,0)" xlink:href="#ac"/><use transform="matrix(0.01844618055555555,0,0,0.01844618055555555,166.16319444444437,0)" xlink:href="#aj"/><use transform="matrix(0.01844618055555555,0,0,0.01844618055555555,186.9335937499999,0)" xlink:href="#ah"/><use transform="matrix(0.01844618055555555,0,0,0.01844618055555555,207.70399305555546,0)" xlink:href="#ay"/></g><path d="M365-172c0-118 75-197 192-197 120 0 197 77 197 197 0 119-78 195-197 195-117 0-192-78-192-195" id="az"/><g id="r"><use transform="matrix(0.015190972222222208,0,0,0.015190972222222208,0,0)" xlink:href="#az"/><use transform="matrix(0.015190972222222208,0,0,0.015190972222222208,17.105034722222207,0)" xlink:href="#az"/><use transform="matrix(0.015190972222222208,0,0,0.015190972222222208,34.210069444444414,0)" xlink:href="#az"/></g><path d="M518-1307c309 4 524 115 524 416 0 317-208 465-534 471H383V0H135v-1307h383zm2 683c167-3 264-86 264-250 0-161-106-228-272-229H383v479h137" id="aA"/><path d="M815-1432c86-1 167 13 236 29v197c-59-19-148-34-228-33-132 2-202 71-202 205v164h399v190H621V0H375v-680H80v-190h295v-154c2-280 160-407 440-408" id="aB"/><g id="s"><use transform="matrix(0.01844618055555555,0,0,0.01844618055555555,0,0)" xlink:href="#aA"/><use transform="matrix(0.01844618055555555,0,0,0.01844618055555555,20.770399305555546,0)" xlink:href="#ab"/><use transform="matrix(0.01844618055555555,0,0,0.01844618055555555,41.54079861111109,0)" xlink:href="#ac"/><use transform="matrix(0.01844618055555555,0,0,0.01844618055555555,62.31119791666664,0)" xlink:href="#aB"/><use transform="matrix(0.01844618055555555,0,0,0.01844618055555555,83.08159722222219,0)" xlink:href="#Z"/><use transform="matrix(0.01844618055555555,0,0,0.01844618055555555,103.85199652777773,0)" xlink:href="#ac"/><use transform="matrix(0.01844618055555555,0,0,0.01844618055555555,124.62239583333327,0)" xlink:href="#aa"/><use transform="matrix(0.01844618055555555,0,0,0.01844618055555555,145.39279513888883,0)" xlink:href="#ai"/><use transform="matrix(0.01844618055555555,0,0,0.01844618055555555,166.16319444444437,0)" xlink:href="#ah"/><use transform="matrix(0.01844618055555555,0,0,0.01844618055555555,186.9335937499999,0)" xlink:href="#as"/><use transform="matrix(0.01844618055555555,0,0,0.01844618055555555,207.70399305555546,0)" xlink:href="#ab"/></g><g id="t"><use transform="matrix(0.015190972222222215,0,0,0.015190972222222215,0,0)" xlink:href="#aA"/><use transform="matrix(0.015190972222222215,0,0,0.015190972222222215,17.105034722222214,0)" xlink:href="#ac"/><use transform="matrix(0.015190972222222215,0,0,0.015190972222222215,34.21006944444443,0)" xlink:href="#ab"/><use transform="matrix(0.015190972222222215,0,0,0.015190972222222215,51.31510416666664,0)" xlink:href="#ae"/><use transform="matrix(0.015190972222222215,0,0,0.015190972222222215,68.42013888888886,0)" xlink:href="#aj"/><use transform="matrix(0.015190972222222215,0,0,0.015190972222222215,85.52517361111107,0)" xlink:href="#as"/><use transform="matrix(0.015190972222222215,0,0,0.015190972222222215,102.63020833333329,0)" xlink:href="#W"/><use transform="matrix(0.015190972222222215,0,0,0.015190972222222215,119.7352430555555,0)" xlink:href="#aj"/><use transform="matrix(0.015190972222222215,0,0,0.015190972222222215,136.84027777777771,0)" xlink:href="#Z"/><use transform="matrix(0.015190972222222215,0,0,0.015190972222222215,153.94531249999994,0)" xlink:href="#ah"/><use transform="matrix(0.015190972222222215,0,0,0.015190972222222215,171.05034722222217,0)" xlink:href="#af"/></g><path d="M152 0v-217h333v-840L195-897l-80-199 415-219h205v1098h287V0H152" id="aC"/><g id="u"><use transform="matrix(0.015299479166666663,0,0,0.015299479166666663,0,0)" xlink:href="#ar"/><use transform="matrix(0.015299479166666663,0,0,0.015299479166666663,17.22721354166666,0)" xlink:href="#aC"/></g><path d="M885-266V0H647v-266H39v-209l510-832h336v826h198v215H885zm-235-805L278-481h372v-590" id="aD"/><g id="v"><use transform="matrix(0.015299479166666663,0,0,0.015299479166666663,0,0)" xlink:href="#ar"/><use transform="matrix(0.015299479166666663,0,0,0.015299479166666663,17.22721354166666,0)" xlink:href="#aD"/></g><path d="M545-1329c261 0 424 123 424 383 0 190-86 298-181 405-95 106-218 214-323 316h551V0H129v-180c143-147 320-305 449-459 73-87 127-150 127-291 0-115-68-182-185-182-121 0-198 60-268 123l-129-166c103-94 238-174 422-174" id="aE"/><g id="w"><use transform="matrix(0.015299479166666663,0,0,0.015299479166666663,0,0)" xlink:href="#ar"/><use transform="matrix(0.015299479166666663,0,0,0.015299479166666663,17.22721354166666,0)" xlink:href="#aE"/></g><path d="M408-811c340-13 598 65 598 393 0 238-158 352-350 409-146 44-346 31-500 5v-213c77 19 184 31 282 31 175 0 307-61 307-217 0-166-119-209-309-209H180v-695h754v230H408v266" id="aF"/><g id="x"><use transform="matrix(0.015299479166666663,0,0,0.015299479166666663,0,0)" xlink:href="#ar"/><use transform="matrix(0.015299479166666663,0,0,0.015299479166666663,17.22721354166666,0)" xlink:href="#aF"/></g><g id="y"><use transform="matrix(0.015190972222222215,0,0,0.015190972222222215,0,0)" xlink:href="#ar"/><use transform="matrix(0.015190972222222215,0,0,0.015190972222222215,17.105034722222214,0)" xlink:href="#Z"/><use transform="matrix(0.015190972222222215,0,0,0.015190972222222215,34.21006944444443,0)" xlink:href="#ae"/><use transform="matrix(0.015190972222222215,0,0,0.015190972222222215,51.31510416666664,0)" xlink:href="#ab"/><use transform="matrix(0.015190972222222215,0,0,0.015190972222222215,68.42013888888886,0)" xlink:href="#Y"/><use transform="matrix(0.015190972222222215,0,0,0.015190972222222215,85.52517361111107,0)" xlink:href="#af"/></g><path d="M512-547c0 368 170 624 391 819L758 420C596 283 476 135 394-22c-121-232-159-516-86-796 76-293 254-500 456-673l139 139c-130 117-228 243-293 378s-98 278-98 427" id="aG"/><path d="M621-526c0-368-170-624-392-820l144-145c163 136 284 284 365 441 119 232 156 517 84 796-76 292-249 503-453 674L229 281C360 164 458 38 523-98s98-279 98-428" id="aH"/><g id="z"><use transform="matrix(0.015190972222222215,0,0,0.015190972222222215,0,0)" xlink:href="#aG"/><use transform="matrix(0.015190972222222215,0,0,0.015190972222222215,17.105034722222214,0)" xlink:href="#ar"/><use transform="matrix(0.015190972222222215,0,0,0.015190972222222215,34.21006944444443,0)" xlink:href="#aH"/></g><path fill="#3a414a" d="M512-547c0 368 170 624 391 819L758 420C596 283 476 135 394-22c-121-232-159-516-86-796 76-293 254-500 456-673l139 139c-130 117-228 243-293 378s-98 278-98 427" id="aI"/><path fill="#3a414a" d="M373-881c70-86 156-161 305-157 278 8 375 226 375 512 0 349-183 538-525 544-151 3-274-25-389-61v-1370h244c0 181 2 364-10 532zm168 707c184-8 256-149 256-342 0-163-23-313-176-313-41 0-81 17-119 50s-77 79-119 136v444c39 15 103 28 158 25" id="aJ"/><path fill="#3a414a" d="M621-526c0-368-170-624-392-820l144-145c163 136 284 284 365 441 119 232 156 517 84 796-76 292-249 503-453 674L229 281C360 164 458 38 523-98s98-279 98-428" id="aK"/><g id="A"><use transform="matrix(0.018446180555555546,0,0,0.018446180555555546,0,0)" xlink:href="#aI"/><use transform="matrix(0.018446180555555546,0,0,0.018446180555555546,20.770399305555543,0)" xlink:href="#aJ"/><use transform="matrix(0.018446180555555546,0,0,0.018446180555555546,41.540798611111086,0)" xlink:href="#aK"/></g><path fill="#3a414a" d="M518-1307c309 4 524 115 524 416 0 317-208 465-534 471H383V0H135v-1307h383zm2 683c167-3 264-86 264-250 0-161-106-228-272-229H383v479h137" id="aL"/><path fill="#3a414a" d="M678-1038c215 0 311 139 311 356V0H745v-662c0-111-41-167-124-167-41 0-81 17-119 50s-77 79-119 136V0H139v-1413h244c0 181 4 367-12 532 72-85 152-157 307-157" id="aM"/><path fill="#3a414a" d="M555-1038c262 0 430 86 430 344V0H776l-6-133C689-47 592 23 426 23 222 23 109-89 109-291c0-297 303-342 632-332v-61c-1-124-79-170-206-170-134 1-248 34-347 78v-195c96-38 232-67 367-67zm-41 868c104-6 156-75 227-143v-136c-177-2-372-15-376 152-2 85 62 132 149 127" id="aN"/><path fill="#3a414a" d="M586-858c-99-2-200 48-157 143 17 38 59 52 109 71 187 73 448 86 439 345C969-59 770 18 528 23c-144 3-259-13-372-41v-220c106 45 228 72 364 74 104 1 191-26 191-110 0-75-61-89-125-114-111-44-278-77-356-152-66-63-101-211-46-312 68-126 217-185 416-186 115-1 212 14 301 32v199c-102-33-194-48-315-51" id="aO"/><path fill="#3a414a" d="M580-1038c335 3 479 234 438 592H350c4 180 106 274 285 274 120 0 230-19 334-49v194C860 2 735 23 598 23c-326 0-496-182-496-510 0-255 103-430 280-511 59-26 125-40 198-40zm196 417c-1-142-64-235-201-235-135 0-210 101-221 235h422" id="aP"/><g id="B"><use transform="matrix(0.018446180555555546,0,0,0.018446180555555546,0,0)" xlink:href="#aL"/><use transform="matrix(0.018446180555555546,0,0,0.018446180555555546,20.770399305555543,0)" xlink:href="#aM"/><use transform="matrix(0.018446180555555546,0,0,0.018446180555555546,41.540798611111086,0)" xlink:href="#aN"/><use transform="matrix(0.018446180555555546,0,0,0.018446180555555546,62.311197916666636,0)" xlink:href="#aO"/><use transform="matrix(0.018446180555555546,0,0,0.018446180555555546,83.08159722222217,0)" xlink:href="#aP"/><use transform="matrix(0.018446180555555546,0,0,0.018446180555555546,103.85199652777771,0)" xlink:href="#aO"/></g><path fill="#3a414a" d="M578-1454c97 0 159 63 159 160s-62 159-159 159-160-62-160-159 62-160 160-160zM467-826H180v-190h537v826h293V0H145v-190h322v-636" id="aQ"/><path fill="#3a414a" d="M309 215H72l698-1628h238" id="aR"/><path fill="#3a414a" d="M707 0H426L23-1016h272c91 254 188 502 274 762 88-257 183-508 275-762h262" id="aS"/><g id="C"><use transform="matrix(0.018446180555555546,0,0,0.018446180555555546,0,0)" xlink:href="#aQ"/><use transform="matrix(0.018446180555555546,0,0,0.018446180555555546,20.770399305555543,0)" xlink:href="#aQ"/><use transform="matrix(0.018446180555555546,0,0,0.018446180555555546,41.540798611111086,0)" xlink:href="#aQ"/><use transform="matrix(0.018446180555555546,0,0,0.018446180555555546,62.311197916666636,0)" xlink:href="#aR"/><use transform="matrix(0.018446180555555546,0,0,0.018446180555555546,83.08159722222217,0)" xlink:href="#aQ"/><use transform="matrix(0.018446180555555546,0,0,0.018446180555555546,103.85199652777771,0)" xlink:href="#aS"/></g><g id="D"><use transform="matrix(0.01844618055555555,0,0,0.01844618055555555,0,0)" xlink:href="#aI"/><use transform="matrix(0.01844618055555555,0,0,0.01844618055555555,20.770399305555546,0)" xlink:href="#aN"/><use transform="matrix(0.01844618055555555,0,0,0.01844618055555555,41.54079861111109,0)" xlink:href="#aK"/></g><g id="E"><use transform="matrix(0.01844618055555555,0,0,0.01844618055555555,0,0)" xlink:href="#aL"/><use transform="matrix(0.01844618055555555,0,0,0.01844618055555555,20.770399305555546,0)" xlink:href="#aM"/><use transform="matrix(0.01844618055555555,0,0,0.01844618055555555,41.54079861111109,0)" xlink:href="#aN"/><use transform="matrix(0.01844618055555555,0,0,0.01844618055555555,62.31119791666664,0)" xlink:href="#aO"/><use transform="matrix(0.01844618055555555,0,0,0.01844618055555555,83.08159722222219,0)" xlink:href="#aP"/><use transform="matrix(0.01844618055555555,0,0,0.01844618055555555,103.85199652777773,0)" xlink:href="#aO"/></g><g id="F"><use transform="matrix(0.01844618055555555,0,0,0.01844618055555555,0,0)" xlink:href="#aQ"/><use transform="matrix(0.01844618055555555,0,0,0.01844618055555555,20.770399305555546,0)" xlink:href="#aR"/><use transform="matrix(0.01844618055555555,0,0,0.01844618055555555,41.54079861111109,0)" xlink:href="#aQ"/><use transform="matrix(0.01844618055555555,0,0,0.01844618055555555,62.31119791666664,0)" xlink:href="#aQ"/></g><path fill="#3a414a" d="M705-203c117 0 214-40 299-78v230C899-9 802 18 666 18 263 18 82-225 82-633c0-327 123-546 352-645 158-69 413-56 570 0v244c-92-44-187-74-302-74-260 0-350 193-350 455 0 266 90 450 353 450" id="aT"/><path fill="#3a414a" d="M573-1038c325 0 481 193 481 522 0 331-170 539-501 539C226 23 72-171 72-502s172-536 501-536zm-8 850c177 0 233-143 235-322 3-189-62-317-235-317-178 0-236 140-239 319-3 188 71 320 239 320" id="aU"/><path fill="#3a414a" d="M850-1036c166 0 216 126 217 307V0H856v-692c-4-70 8-152-59-152-21 0-41 14-61 42s-43 76-68 143V0H459v-692c-4-70 8-149-60-152-17 0-37 14-58 42s-45 76-71 143V0H59v-1016h181l4 148c45-85 85-167 209-168 114-1 172 64 180 168 49-84 90-168 217-168" id="aV"/><path fill="#3a414a" d="M756-172c79 0 159-16 221-33v195C899 8 807 23 717 23 466 25 332-79 332-330v-496H59v-190h273v-260l250-65v325h395v190H582v478c2 119 51 176 174 176" id="aW"/><g id="G"><use transform="matrix(0.013020833333333332,0,0,0.013020833333333332,0,0)" xlink:href="#aT"/><use transform="matrix(0.013020833333333332,0,0,0.013020833333333332,14.661458333333332,0)" xlink:href="#aU"/><use transform="matrix(0.013020833333333332,0,0,0.013020833333333332,29.322916666666664,0)" xlink:href="#aV"/><use transform="matrix(0.013020833333333332,0,0,0.013020833333333332,43.984375,0)" xlink:href="#aV"/><use transform="matrix(0.013020833333333332,0,0,0.013020833333333332,58.64583333333333,0)" xlink:href="#aQ"/><use transform="matrix(0.013020833333333332,0,0,0.013020833333333332,73.30729166666666,0)" xlink:href="#aW"/><use transform="matrix(0.009114583333333332,0,0,0.009114583333333332,87.96874999999999,3.4658203124999996)" xlink:href="#aQ"/></g><path fill="#3a414a" d="M678-1038c215 0 311 139 311 356V0H745v-662c0-111-41-167-124-167-41 0-81 17-119 50s-77 79-119 136V0H139v-1016h211l6 150c75-92 158-172 322-172" id="aX"/><g id="H"><use transform="matrix(0.013020833333333332,0,0,0.013020833333333332,0,0)" xlink:href="#aT"/><use transform="matrix(0.013020833333333332,0,0,0.013020833333333332,14.661458333333332,0)" xlink:href="#aU"/><use transform="matrix(0.013020833333333332,0,0,0.013020833333333332,29.322916666666664,0)" xlink:href="#aV"/><use transform="matrix(0.013020833333333332,0,0,0.013020833333333332,43.984375,0)" xlink:href="#aV"/><use transform="matrix(0.013020833333333332,0,0,0.013020833333333332,58.64583333333333,0)" xlink:href="#aQ"/><use transform="matrix(0.013020833333333332,0,0,0.013020833333333332,73.30729166666666,0)" xlink:href="#aW"/><use transform="matrix(0.009114583333333332,0,0,0.009114583333333332,87.96874999999999,3.4658203124999996)" xlink:href="#aX"/></g><path d="M743-696c160 29 277 115 277 297 0 323-263 419-600 419-97 0-197-6-281-20v-212c224 32 630 87 623-181-6-201-246-190-465-189v-186c205 7 403 1 401-193-1-119-82-163-213-163-119 0-213 26-311 55v-205c101-33 205-57 338-55 251 3 432 86 438 328 4 168-84 255-207 305" id="aY"/><g id="I"><use transform="matrix(0.015299479166666663,0,0,0.015299479166666663,0,0)" xlink:href="#ar"/><use transform="matrix(0.015299479166666663,0,0,0.015299479166666663,17.22721354166666,0)" xlink:href="#aY"/></g><g id="J"><use transform="matrix(0.013020833333333332,0,0,0.013020833333333332,0,0)" xlink:href="#aT"/><use transform="matrix(0.013020833333333332,0,0,0.013020833333333332,14.661458333333332,0)" xlink:href="#aU"/><use transform="matrix(0.013020833333333332,0,0,0.013020833333333332,29.322916666666664,0)" xlink:href="#aV"/><use transform="matrix(0.013020833333333332,0,0,0.013020833333333332,43.984375,0)" xlink:href="#aV"/><use transform="matrix(0.013020833333333332,0,0,0.013020833333333332,58.64583333333333,0)" xlink:href="#aQ"/><use transform="matrix(0.013020833333333332,0,0,0.013020833333333332,73.30729166666666,0)" xlink:href="#aW"/><use transform="matrix(0.009114583333333332,0,0,0.009114583333333332,87.96874999999999,3.4658203124999996)" xlink:href="#aQ"/><use transform="matrix(0.009114583333333332,0,0,0.009114583333333332,98.23177083333331,3.4658203124999996)" xlink:href="#aQ"/></g><g id="K"><use transform="matrix(0.013020833333333322,0,0,0.013020833333333322,0,0)" xlink:href="#aq"/><use transform="matrix(0.013020833333333322,0,0,0.013020833333333322,14.66145833333332,0)" xlink:href="#aq"/></g><path d="M793-641c8-166-82-268-237-221-101 31-153 114-222 196V0H160v-1004h155l7 162c85-94 163-180 331-180 220 0 314 136 314 367V0H793v-641" id="aZ"/><use transform="matrix(0.013020833333333322,0,0,0.013020833333333322,0,0)" xlink:href="#aZ" id="L"/><g id="M"><use transform="matrix(0.013020833333333332,0,0,0.013020833333333332,0,0)" xlink:href="#aT"/><use transform="matrix(0.013020833333333332,0,0,0.013020833333333332,14.661458333333332,0)" xlink:href="#aU"/><use transform="matrix(0.013020833333333332,0,0,0.013020833333333332,29.322916666666664,0)" xlink:href="#aV"/><use transform="matrix(0.013020833333333332,0,0,0.013020833333333332,43.984375,0)" xlink:href="#aV"/><use transform="matrix(0.013020833333333332,0,0,0.013020833333333332,58.64583333333333,0)" xlink:href="#aQ"/><use transform="matrix(0.013020833333333332,0,0,0.013020833333333332,73.30729166666666,0)" xlink:href="#aW"/><use transform="matrix(0.009114583333333332,0,0,0.009114583333333332,87.96874999999999,3.4658203124999996)" xlink:href="#aQ"/><use transform="matrix(0.009114583333333332,0,0,0.009114583333333332,98.23177083333331,3.4658203124999996)" xlink:href="#aQ"/><use transform="matrix(0.009114583333333332,0,0,0.009114583333333332,108.49479166666664,3.4658203124999996)" xlink:href="#aQ"/></g></defs></g></svg>